<svg width="78" height="20" viewBox="0 0 78 20" fill="none"
     xmlns="http://www.w3.org/2000/svg">
  <path id="DAPPPAD"
        d="M4.848 15.5H1.184V4.62H4.848C5.78667 4.62 6.56 4.72133 7.168 4.924C7.776 5.116 8.24533 5.44133 8.576 5.9C8.91733 6.348 9.152 6.88133 9.28 7.5C9.408 8.108 9.472 8.90267 9.472 9.884C9.472 10.8653 9.41333 11.6813 9.296 12.332C9.17867 12.972 8.95467 13.548 8.624 14.06C8.304 14.5613 7.83467 14.9293 7.216 15.164C6.59733 15.388 5.808 15.5 4.848 15.5ZM7.168 11.18C7.18933 10.8387 7.2 10.3693 7.2 9.772C7.2 9.164 7.17867 8.67867 7.136 8.316C7.09333 7.95333 6.992 7.62267 6.832 7.324C6.672 7.02533 6.432 6.82267 6.112 6.716C5.80267 6.59867 5.38133 6.54 4.848 6.54H3.392V13.58H4.848C5.648 13.58 6.22933 13.3773 6.592 12.972C6.90133 12.6413 7.09333 12.044 7.168 11.18ZM11.9189 15.5L14.3669 4.62H18.5589L21.0069 15.5H18.7989L18.3669 13.532H14.5589L14.1269 15.5H11.9189ZM16.0789 6.444L14.9749 11.612H17.9509L16.8469 6.444H16.0789ZM28.0559 12.332H26.2639V15.5H24.0559V4.62H28.0559C30.6372 4.62 31.9279 5.87867 31.9279 8.396C31.9279 9.66533 31.5972 10.6413 30.9359 11.324C30.2852 11.996 29.3252 12.332 28.0559 12.332ZM26.2639 10.444H28.0399C29.1385 10.444 29.6879 9.76133 29.6879 8.396C29.6879 7.724 29.5545 7.244 29.2879 6.956C29.0212 6.65733 28.6052 6.508 28.0399 6.508H26.2639V10.444ZM39.0777 12.332H37.2857V15.5H35.0777V4.62H39.0777C41.6591 4.62 42.9497 5.87867 42.9497 8.396C42.9497 9.66533 42.6191 10.6413 41.9577 11.324C41.3071 11.996 40.3471 12.332 39.0777 12.332ZM37.2857 10.444H39.0617C40.1604 10.444 40.7097 9.76133 40.7097 8.396C40.7097 7.724 40.5764 7.244 40.3097 6.956C40.0431 6.65733 39.6271 6.508 39.0617 6.508H37.2857V10.444ZM50.0996 12.332H48.3076V15.5H46.0996V4.62H50.0996C52.681 4.62 53.9716 5.87867 53.9716 8.396C53.9716 9.66533 53.641 10.6413 52.9796 11.324C52.329 11.996 51.369 12.332 50.0996 12.332ZM48.3076 10.444H50.0836C51.1823 10.444 51.7316 9.76133 51.7316 8.396C51.7316 7.724 51.5983 7.244 51.3316 6.956C51.065 6.65733 50.649 6.508 50.0836 6.508H48.3076V10.444ZM55.9126 15.5L58.3606 4.62H62.5526L65.0006 15.5H62.7926L62.3606 13.532H58.5526L58.1206 15.5H55.9126ZM60.0726 6.444L58.9686 11.612H61.9446L60.8406 6.444H60.0726ZM71.7136 15.5H68.0496V4.62H71.7136C72.6523 4.62 73.4256 4.72133 74.0336 4.924C74.6416 5.116 75.111 5.44133 75.4416 5.9C75.783 6.348 76.0176 6.88133 76.1456 7.5C76.2736 8.108 76.3376 8.90267 76.3376 9.884C76.3376 10.8653 76.279 11.6813 76.1616 12.332C76.0443 12.972 75.8203 13.548 75.4896 14.06C75.1696 14.5613 74.7003 14.9293 74.0816 15.164C73.463 15.388 72.6736 15.5 71.7136 15.5ZM74.0336 11.18C74.055 10.8387 74.0656 10.3693 74.0656 9.772C74.0656 9.164 74.0443 8.67867 74.0016 8.316C73.959 7.95333 73.8576 7.62267 73.6976 7.324C73.5376 7.02533 73.2976 6.82267 72.9776 6.716C72.6683 6.59867 72.247 6.54 71.7136 6.54H70.2576V13.58H71.7136C72.5136 13.58 73.095 13.3773 73.4576 12.972C73.767 12.6413 73.959 12.044 74.0336 11.18Z"
        fill="#38363F"/>
</svg>
