<svg width="8" height="10" viewBox="0 0 8 10" fill="none" xmlns="http://www.w3.org/2000/svg">
<path d="M7.21901 5.24256L1.03626 9.3644C0.992336 9.39363 0.941309 9.41039 0.888611 9.41291C0.835913 9.41543 0.783518 9.40361 0.737007 9.37871C0.690496 9.35381 0.65161 9.31676 0.624491 9.27151C0.597372 9.22625 0.583035 9.17449 0.583008 9.12173V0.878064C0.583035 0.825306 0.597372 0.773544 0.624491 0.728289C0.65161 0.683035 0.690496 0.645984 0.737007 0.621082C0.783518 0.59618 0.835913 0.58436 0.888611 0.586881C0.941309 0.589402 0.992336 0.60617 1.03626 0.635397L7.21901 4.75723C7.25895 4.78387 7.29171 4.81995 7.31436 4.86228C7.33701 4.90462 7.34886 4.95189 7.34886 4.9999C7.34886 5.04791 7.33701 5.09518 7.31436 5.13751C7.29171 5.17984 7.25895 5.21593 7.21901 5.24256Z" fill="currentColor"/>
</svg>
