<svg width="8" height="10" viewBox="0 0 8 10" fill="none" xmlns="http://www.w3.org/2000/svg">
<path d="M0.546617 5.24256L6.72937 9.3644C6.77329 9.39363 6.82432 9.41039 6.87701 9.41291C6.92971 9.41543 6.98211 9.40361 7.02862 9.37871C7.07513 9.35381 7.11402 9.31676 7.14113 9.27151C7.16825 9.22625 7.18259 9.17449 7.18262 9.12173V0.878064C7.18259 0.825306 7.16825 0.773544 7.14113 0.728289C7.11402 0.683035 7.07513 0.645984 7.02862 0.621082C6.98211 0.59618 6.92971 0.58436 6.87701 0.586881C6.82432 0.589402 6.77329 0.60617 6.72937 0.635397L0.546617 4.75723C0.506671 4.78387 0.473918 4.81995 0.451265 4.86228C0.428613 4.90462 0.41676 4.95189 0.41676 4.9999C0.41676 5.04791 0.428613 5.09518 0.451265 5.13751C0.473918 5.17984 0.506671 5.21593 0.546617 5.24256Z" fill="currentColor"/>
</svg>
