<svg width="32" height="32" viewBox="0 0 32 32" fill="none" xmlns="http://www.w3.org/2000/svg">
<path d="M8.91602 17.4167V30.1667C8.91602 30.5424 8.76676 30.9027 8.50108 31.1684C8.23541 31.4341 7.87507 31.5834 7.49935 31.5834H1.83268C1.45696 31.5834 1.09662 31.4341 0.830948 31.1684C0.565271 30.9027 0.416016 30.5424 0.416016 30.1667V17.4167C0.416016 17.041 0.565271 16.6806 0.830948 16.415C1.09662 16.1493 1.45696 16 1.83268 16H7.49935C7.87507 16 8.23541 16.1493 8.50108 16.415C8.76676 16.6806 8.91602 17.041 8.91602 17.4167ZM18.8327 0.416687H13.166C12.7903 0.416687 12.43 0.565942 12.1643 0.831619C11.8986 1.0973 11.7493 1.45763 11.7493 1.83335V30.1667C11.7493 30.5424 11.8986 30.9027 12.1643 31.1684C12.43 31.4341 12.7903 31.5834 13.166 31.5834H18.8327C19.2084 31.5834 19.5687 31.4341 19.8344 31.1684C20.1001 30.9027 20.2493 30.5424 20.2493 30.1667V1.83335C20.2493 1.45763 20.1001 1.0973 19.8344 0.831619C19.5687 0.565942 19.2084 0.416687 18.8327 0.416687ZM30.166 7.50002H24.4993C24.1236 7.50002 23.7633 7.64928 23.4976 7.91495C23.2319 8.18063 23.0827 8.54096 23.0827 8.91669V30.1667C23.0827 30.5424 23.2319 30.9027 23.4976 31.1684C23.7633 31.4341 24.1236 31.5834 24.4993 31.5834H30.166C30.5417 31.5834 30.9021 31.4341 31.1678 31.1684C31.4334 30.9027 31.5827 30.5424 31.5827 30.1667V8.91669C31.5827 8.54096 31.4334 8.18063 31.1678 7.91495C30.9021 7.64928 30.5417 7.50002 30.166 7.50002Z" fill="currentColor"/>
</svg>
