<svg width="18" height="19" viewBox="0 0 18 19" fill="none" xmlns="http://www.w3.org/2000/svg">
<g clip-path="url(#clip0_517_3575)">
<path d="M9.29752 1.25C10.6013 1.24938 11.8659 1.69588 12.8804 2.51503C13.8949 3.33418 14.598 4.47647 14.8724 5.75138C15.1467 7.02629 14.9758 8.35675 14.3881 9.52087C13.8005 10.685 12.8315 11.6124 11.643 12.1484C11.263 12.9886 10.6851 13.724 9.95859 14.2916C9.23212 14.8593 8.37883 15.2422 7.47191 15.4076C6.56499 15.5729 5.63151 15.5158 4.75151 15.2411C3.87152 14.9663 3.07128 14.4822 2.41942 13.8302C1.76756 13.1782 1.28354 12.3777 1.00888 11.4975C0.734206 10.6173 0.677082 9.6836 0.842403 8.77647C1.00772 7.86933 1.39056 7.01584 1.95807 6.28919C2.52558 5.56254 3.26083 4.98441 4.10077 4.6044C4.55257 3.60449 5.28317 2.75617 6.20493 2.16119C7.1267 1.56621 8.20049 1.24983 9.29752 1.25ZM9.29752 2.67528C8.69383 2.67458 8.09688 2.80209 7.54614 3.04939C6.99541 3.29669 6.50345 3.65814 6.10281 4.10983C6.90808 4.06093 7.71456 4.18359 8.46892 4.46968C9.22328 4.75577 9.90832 5.19878 10.4788 5.76941C11.0492 6.34005 11.492 7.02531 11.7779 7.77989C12.0639 8.53446 12.1864 9.34115 12.1374 10.1466C12.7852 9.57053 13.2426 8.81109 13.4489 7.969C13.6553 7.12692 13.6008 6.24199 13.2928 5.43158C12.9847 4.62117 12.4377 3.92357 11.7241 3.43131C11.0106 2.93905 10.1643 2.67538 9.29752 2.67528Z" fill="currentColor"/>
<path d="M11.8526 17.75C14.8334 17.75 17.2498 15.354 17.2498 12.3985C17.2498 10.9885 16.6999 9.70588 15.8011 8.74999C15.7522 9.45804 15.5615 10.1544 15.2343 10.7969C14.6778 11.8896 13.7603 12.7602 12.6348 13.2633C12.2751 14.0519 11.7278 14.7423 11.0398 15.2751C10.3519 15.8079 9.54394 16.1674 8.68515 16.3226C8.54064 16.3487 8.39542 16.3689 8.24984 16.3832C9.20526 17.2331 10.4681 17.75 11.8526 17.75Z" fill="currentColor"/>
</g>
<defs>
<clipPath id="clip0_517_3575">
<rect width="18" height="18" fill="white" transform="translate(0 0.5)"/>
</clipPath>
</defs>
</svg>
