<svg width="30" height="26" viewBox="0 0 30 26" fill="none" xmlns="http://www.w3.org/2000/svg">
<path d="M27.3486 20.914L25.9097 23.1591C23.5253 26.8793 16.0642 26.3511 9.24471 21.9802C2.54642 17.6871 -1.04168 11.2841 1.09171 7.53296L1.21345 7.33067L2.6524 5.08555C0.268056 8.8057 3.86413 15.3643 10.6837 19.7351C17.5032 24.1059 24.9643 24.6342 27.3486 20.914ZM20.7563 4.01934C27.5759 8.39015 31.1719 14.9488 28.7876 18.6689C26.4032 22.3891 18.9421 21.8608 12.1226 17.49C5.30309 13.1192 1.70701 6.56059 4.09135 2.84044C6.47569 -0.879711 13.9368 -0.351479 20.7563 4.01934Z" fill="currentColor"/>
</svg>
