<svg width="24" height="24" viewBox="0 0 24 24" fill="none" xmlns="http://www.w3.org/2000/svg">
<path d="M11.5086 0H12.4919C12.4996 0.0177246 12.5157 0.0109566 12.5283 0.0116011C13.0517 0.0336084 13.573 0.0907803 14.0888 0.182726C15.2591 0.387464 16.3918 0.767727 17.4485 1.31066C19.7084 2.47597 21.4342 4.18248 22.626 6.43018C23.4471 7.98447 23.8925 9.64543 23.9847 11.4008C24.0218 12.128 23.9914 12.8571 23.8941 13.5787C23.7965 14.3235 23.6278 15.0573 23.3904 15.7701C22.6946 17.8487 21.5289 19.6189 19.8705 21.0527C17.7837 22.8574 15.3524 23.8242 12.5995 23.9834C11.7882 24.0269 10.9746 23.9849 10.1721 23.858C9.31487 23.7267 8.47453 23.5022 7.66607 23.1883C6.20884 22.6271 4.87666 21.7838 3.74586 20.7069C2.19505 19.2311 1.11229 17.4673 0.497598 15.4153C0.318495 14.8162 0.187451 14.2038 0.105709 13.5838C0.0580113 13.2248 0.0286838 12.8645 0.00902478 12.503L0 12.191V11.5072C0.0193368 11.4972 0.010957 11.4791 0.0116016 11.4646C0.0468049 10.67 0.161793 9.88084 0.35483 9.10918C0.780129 7.37977 1.58904 5.76819 2.72165 4.39378C4.08103 2.73948 5.7629 1.53291 7.76727 0.774084C8.89932 0.344306 10.0905 0.0904258 11.2995 0.0212707C11.3681 0.0164367 11.4403 0.025459 11.5086 0ZM9.31711 5.32448H6.45559C6.29445 5.32448 6.28607 5.33254 6.28607 5.49303V9.45239C6.28607 9.48462 6.28607 9.52039 6.28381 9.55423C6.27704 9.64059 6.25932 9.65639 6.17198 9.65896H6.11816C5.58597 9.65896 5.05399 9.65896 4.52223 9.65896C4.42329 9.65896 4.40975 9.67217 4.40975 9.76885C4.40975 10.2007 4.40975 10.6326 4.40975 11.0647C4.40975 11.1901 4.42619 11.2049 4.55285 11.2049C5.08998 11.2049 5.62786 11.2049 6.1665 11.2049C6.27543 11.2049 6.28607 11.2162 6.28607 11.326V12.6999C6.28607 12.7218 6.28413 12.7437 6.28284 12.7643C6.27962 12.822 6.25062 12.8523 6.19099 12.85C6.16489 12.85 6.13879 12.85 6.113 12.85C5.56513 12.85 5.01725 12.85 4.46937 12.85C4.42909 12.85 4.40879 12.8542 4.40879 12.9035C4.41072 13.3576 4.40879 13.8114 4.40879 14.2654C4.40879 14.3815 4.42619 14.3969 4.54092 14.3969H6.14265C6.28123 14.3969 6.28478 14.4005 6.28478 14.5371V17.6866C6.28478 17.9908 6.28639 18.2947 6.28478 18.5986C6.28478 18.6557 6.3025 18.674 6.35536 18.6657C6.35933 18.6653 6.36331 18.6653 6.36728 18.6657C8.13724 18.6657 9.90688 18.6689 11.6768 18.6657C12.4719 18.6657 13.256 18.5645 14.0185 18.3321C14.8674 18.0743 15.6528 17.6953 16.3489 17.1375C17.2326 16.4285 17.8985 15.5632 18.3016 14.501C18.3148 14.465 18.3391 14.434 18.3709 14.4125C18.4027 14.3911 18.4405 14.3802 18.4789 14.3814L19.8947 14.3837C19.9225 14.3837 19.9504 14.3821 19.9781 14.3789C20.0037 14.3774 20.0278 14.3665 20.0457 14.3482C20.0636 14.3299 20.074 14.3055 20.0748 14.2799C20.0782 14.2462 20.0795 14.2123 20.0787 14.1784C20.0787 13.9222 20.0738 13.6663 20.0809 13.4105C20.0851 13.2516 20.0677 13.0914 20.0996 12.9332C20.1135 12.8645 20.0903 12.8446 20.0197 12.8446H18.9159C18.7528 12.8446 18.7435 12.8368 18.7547 12.6747C18.7848 12.302 18.7892 11.9276 18.768 11.5542C18.7625 11.4643 18.7541 11.3747 18.7525 11.2848C18.7525 11.2171 18.7705 11.2007 18.8376 11.1965C18.8595 11.1965 18.8817 11.1965 18.9036 11.1965C19.2475 11.1965 19.5914 11.1965 19.9349 11.1965C20.0413 11.1965 20.0761 11.1607 20.0764 11.055C20.0764 10.6309 20.0764 10.207 20.0764 9.78336C20.0764 9.66863 20.0574 9.65187 19.9417 9.65187C19.4718 9.65187 19.0019 9.65273 18.5321 9.65445C18.489 9.65585 18.4467 9.64299 18.4118 9.61787C18.3768 9.59275 18.3511 9.55678 18.3387 9.51555C18.3316 9.49493 18.3248 9.47398 18.3168 9.45368C17.8762 8.3244 17.1117 7.35046 16.1195 6.65415C14.8706 5.76727 13.4648 5.35123 11.9411 5.32803C11.0648 5.31385 10.1908 5.32448 9.31679 5.32448H9.31711Z" fill="#FEA700"/>
<path d="M0.0100003 12.503H0.000976562V12.191L0.0100003 12.503Z" fill="#FDFDFB"/>
<path d="M9.31682 5.3245C10.1908 5.3245 11.0649 5.31386 11.9386 5.32675C13.4623 5.34995 14.8681 5.766 16.1169 6.65288C17.1092 7.34918 17.8736 8.32313 18.3142 9.45241C18.3223 9.47271 18.3291 9.49365 18.3361 9.51428C18.3486 9.55551 18.3742 9.59148 18.4092 9.6166C18.4442 9.64172 18.4865 9.65458 18.5295 9.65318C18.9994 9.65189 19.4693 9.65103 19.9392 9.6506C20.0549 9.6506 20.0735 9.66736 20.0739 9.78208C20.0758 10.2058 20.0758 10.6296 20.0739 11.0537C20.0739 11.1595 20.0387 11.1946 19.9324 11.1952C19.5882 11.1972 19.2443 11.1952 18.9011 11.1952C18.8792 11.1952 18.8569 11.1952 18.835 11.1952C18.768 11.1994 18.7487 11.2158 18.7499 11.2835C18.7499 11.3734 18.7599 11.463 18.7654 11.5529C18.7866 11.9263 18.7822 12.3007 18.7522 12.6735C18.74 12.8346 18.7493 12.8433 18.9133 12.8433H20.0171C20.0877 12.8433 20.1109 12.8633 20.0971 12.9319C20.0648 13.0901 20.0826 13.2503 20.0784 13.4092C20.0713 13.6651 20.0765 13.921 20.0761 14.1772C20.0769 14.211 20.0756 14.2449 20.0723 14.2787C20.0714 14.3043 20.061 14.3286 20.0431 14.3469C20.0252 14.3652 20.0011 14.3762 19.9756 14.3776C19.9479 14.3808 19.92 14.3824 19.8921 14.3824L18.4763 14.3802C18.438 14.3789 18.4002 14.3898 18.3683 14.4113C18.3365 14.4327 18.3123 14.4637 18.2991 14.4997C17.8959 15.5632 17.2301 16.4282 16.3464 17.1362C15.6503 17.694 14.8639 18.0727 14.016 18.3308C13.2525 18.5632 12.469 18.6628 11.6743 18.6644C9.90434 18.6683 8.1347 18.6644 6.36474 18.6644C6.36078 18.6641 6.35679 18.6641 6.35282 18.6644C6.29997 18.6728 6.2816 18.6544 6.28224 18.5974C6.28514 18.2935 6.28224 17.9896 6.28224 17.6853V14.5358C6.28224 14.3992 6.27869 14.3957 6.14011 14.3957H4.53838C4.42365 14.3957 4.40657 14.3802 4.40625 14.2642C4.40625 13.8101 4.40625 13.3563 4.40625 12.9023C4.40625 12.853 4.42655 12.8488 4.46684 12.8488C5.01471 12.8501 5.56259 12.8501 6.11046 12.8488C6.13625 12.8488 6.16235 12.8488 6.18846 12.8488C6.24808 12.851 6.27708 12.8207 6.28031 12.763C6.28031 12.7411 6.28353 12.7192 6.28353 12.6986V11.3248C6.28353 11.2149 6.27289 11.2036 6.16396 11.2036C5.62683 11.2036 5.08894 11.2036 4.55031 11.2036C4.42365 11.2036 4.40754 11.1888 4.40722 11.0634C4.40722 10.6311 4.40722 10.1992 4.40722 9.76758C4.40722 9.6709 4.42075 9.65769 4.51969 9.65769C5.05188 9.65769 5.58386 9.65769 6.11562 9.65769H6.16944C6.25678 9.65511 6.2745 9.63932 6.28127 9.55295C6.28417 9.52073 6.28353 9.48495 6.28353 9.45112V5.49336C6.28353 5.33223 6.29094 5.32482 6.45305 5.32482L9.31682 5.3245ZM12.2341 9.69604H16.5417C16.6384 9.69604 16.6438 9.68863 16.6487 9.60967C16.651 9.56981 16.6421 9.5301 16.6232 9.49494C16.3264 8.90157 15.9069 8.37804 15.3924 7.95903C14.4143 7.16786 13.2976 6.75633 12.0365 6.75246C10.6849 6.74827 9.33294 6.75246 7.9813 6.75246C7.80501 6.75246 7.79438 6.76309 7.79438 6.93808C7.79438 7.79746 7.79438 8.65684 7.79438 9.51622C7.79438 9.69314 7.79695 9.69572 7.97646 9.69572L12.2341 9.69604ZM12.0784 14.4079H7.98839C7.79824 14.4079 7.79502 14.4121 7.79502 14.6013C7.79502 15.445 7.79502 16.2886 7.79502 17.1323C7.79502 17.1646 7.79728 17.1968 7.79856 17.229C7.79799 17.2391 7.79957 17.2492 7.80321 17.2586C7.80684 17.2681 7.81244 17.2766 7.81963 17.2837C7.82683 17.2908 7.83545 17.2963 7.84494 17.2998C7.85442 17.3034 7.86454 17.3048 7.87462 17.3041C7.91845 17.3067 7.96261 17.3086 8.00644 17.3086H11.7252C11.8412 17.3086 11.9569 17.3218 12.073 17.3086C12.2789 17.2835 12.4852 17.26 12.6914 17.2335C13.0257 17.1866 13.3556 17.1127 13.6779 17.0125C13.9995 16.9135 14.3108 16.784 14.6077 16.6257C15.4556 16.1833 16.105 15.53 16.5736 14.696C16.6104 14.6389 16.6406 14.5778 16.6638 14.5139C16.6877 14.4366 16.6703 14.4111 16.5913 14.4034C16.4624 14.3905 16.3335 14.4089 16.202 14.4089C14.8272 14.4089 13.453 14.4085 12.0794 14.4079H12.0784ZM12.4603 12.8455H16.96C16.9819 12.8455 17.0042 12.8455 17.0261 12.8455C17.1195 12.8426 17.1414 12.822 17.1492 12.7292C17.1888 12.2587 17.1888 11.7856 17.1492 11.3151C17.1431 11.2387 17.1147 11.2081 17.0386 11.1991C17.0128 11.1969 16.9869 11.1961 16.961 11.1968H7.96905C7.81887 11.1968 7.79437 11.2213 7.79373 11.3702V11.3821C7.79373 11.8082 7.79373 12.2341 7.79373 12.6599C7.79373 12.8456 7.79373 12.8455 7.97969 12.8455H12.4603Z" fill="#FDFDFB"/>
<path d="M12.2343 9.69603H7.97603C7.79652 9.69603 7.79395 9.69345 7.79395 9.51653C7.79395 8.65715 7.79395 7.79778 7.79395 6.9384C7.79395 6.76341 7.80458 6.75278 7.98087 6.75278C9.33251 6.75278 10.6845 6.74955 12.0361 6.75278C13.2966 6.75664 14.4139 7.16817 15.392 7.95934C15.9071 8.37837 16.3272 8.90215 16.6244 9.49591C16.6433 9.53106 16.6522 9.57077 16.6499 9.61063C16.6451 9.68959 16.6396 9.697 16.5429 9.697L12.2343 9.69603Z" fill="#FEA700"/>
<path d="M12.0796 14.4079C13.4532 14.4079 14.8267 14.4079 16.2003 14.4079C16.3292 14.4079 16.4597 14.3895 16.5896 14.4024C16.6686 14.4101 16.6863 14.4346 16.6621 14.513C16.6389 14.5768 16.6087 14.6379 16.5719 14.695C16.1039 15.5287 15.4545 16.1823 14.606 16.6248C14.3091 16.783 13.9977 16.9125 13.6762 17.0115C13.3539 17.1117 13.024 17.1857 12.6897 17.2326C12.4834 17.259 12.2772 17.2825 12.0712 17.3076C11.9552 17.3218 11.8395 17.3076 11.7235 17.3076H8.00536C7.96153 17.3076 7.91738 17.3057 7.87355 17.3031C7.86346 17.3038 7.85334 17.3024 7.84386 17.2989C7.83438 17.2954 7.82576 17.2899 7.81856 17.2828C7.81137 17.2757 7.80576 17.2671 7.80213 17.2577C7.7985 17.2482 7.79692 17.2381 7.79749 17.228C7.79749 17.1958 7.79395 17.1636 7.79395 17.1314C7.79395 16.2877 7.79395 15.444 7.79395 14.6003C7.79395 14.4111 7.79846 14.4069 7.98731 14.4069L12.0796 14.4079Z" fill="#FEA700"/>
<path d="M12.4612 12.8455H7.9799C7.79427 12.8455 7.79395 12.8455 7.79395 12.6599C7.79395 12.2338 7.79395 11.8079 7.79395 11.3821V11.3702C7.79395 11.2213 7.81908 11.1968 7.96927 11.1968H16.9625C16.9884 11.1961 17.0143 11.1968 17.0402 11.199C17.1162 11.2081 17.1446 11.2387 17.1507 11.3151C17.1903 11.7856 17.1903 12.2586 17.1507 12.7292C17.143 12.822 17.121 12.8426 17.0276 12.8455C17.0057 12.8455 16.9834 12.8455 16.9615 12.8455H12.4612Z" fill="#FEA700"/>
</svg>
