<svg width="18" height="19" viewBox="0 0 18 19" fill="none" xmlns="http://www.w3.org/2000/svg">
<path d="M8.63146 0.5H9.36892C9.37472 0.513293 9.3868 0.508217 9.39623 0.508701C9.78878 0.525206 10.1798 0.568085 10.5666 0.637045C11.4443 0.790598 12.2938 1.0758 13.0864 1.48299C14.7813 2.35698 16.0756 3.63686 16.9695 5.32263C17.5854 6.48835 17.9194 7.73407 17.9885 9.05061C18.0163 9.59601 17.9936 10.1428 17.9206 10.684C17.8473 11.2427 17.7208 11.793 17.5428 12.3276C17.021 13.8865 16.1467 15.2142 14.9029 16.2895C13.3378 17.643 11.5143 18.3681 9.44965 18.4875C8.84118 18.5202 8.23096 18.4887 7.62909 18.3935C6.98615 18.295 6.3559 18.1266 5.74955 17.8913C4.65663 17.4703 3.6575 16.8379 2.80939 16.0302C1.64629 14.9233 0.83422 13.6004 0.373199 12.0615C0.238871 11.6121 0.140588 11.1528 0.0792815 10.6879C0.0435085 10.4186 0.0215129 10.1484 0.00676858 9.87722L0 9.64326V9.13037C0.0145026 9.12288 0.00821778 9.10934 0.0087012 9.09846C0.0351037 8.50247 0.121345 7.91063 0.266123 7.33188C0.585097 6.03483 1.19178 4.82614 2.04124 3.79533C3.06077 2.55461 4.32218 1.64968 5.82545 1.08056C6.67449 0.75823 7.5679 0.567819 8.47459 0.515953C8.52607 0.512328 8.58022 0.519094 8.63146 0.5ZM6.98783 4.49336H4.84169C4.72084 4.49336 4.71455 4.49941 4.71455 4.61977V7.58929C4.71455 7.61346 4.71455 7.64029 4.71286 7.66567C4.70778 7.73045 4.69449 7.74229 4.62899 7.74422H4.58862C4.18948 7.74422 3.79049 7.74422 3.39167 7.74422C3.31747 7.74422 3.30731 7.75413 3.30731 7.82664C3.30731 8.15052 3.30731 8.47448 3.30731 8.79852C3.30731 8.89254 3.31964 8.90366 3.41464 8.90366C3.81749 8.90366 4.2209 8.90366 4.62488 8.90366C4.70657 8.90366 4.71455 8.91212 4.71455 8.99453V10.0249C4.71455 10.0413 4.7131 10.0578 4.71213 10.0732C4.70972 10.1165 4.68796 10.1392 4.64325 10.1375C4.62367 10.1375 4.60409 10.1375 4.58475 10.1375C4.17385 10.1375 3.76294 10.1375 3.35203 10.1375C3.32182 10.1375 3.30659 10.1407 3.30659 10.1777C3.30804 10.5182 3.30659 10.8585 3.30659 11.1991C3.30659 11.2861 3.31964 11.2977 3.40569 11.2977H4.60699C4.71092 11.2977 4.71358 11.3003 4.71358 11.4028V13.765C4.71358 13.9931 4.71479 14.221 4.71358 14.449C4.71358 14.4917 4.72688 14.5055 4.76652 14.4992C4.7695 14.499 4.77249 14.499 4.77546 14.4992C6.10293 14.4992 7.43016 14.5017 8.75763 14.4992C9.35393 14.4992 9.94201 14.4233 10.5139 14.2491C11.1506 14.0557 11.7396 13.7715 12.2617 13.3531C12.9245 12.8214 13.4238 12.1724 13.7262 11.3758C13.7361 11.3487 13.7543 11.3255 13.7782 11.3094C13.802 11.2933 13.8304 11.2851 13.8592 11.2861L14.921 11.2878C14.9419 11.2878 14.9628 11.2866 14.9836 11.2842C15.0028 11.2831 15.0208 11.2749 15.0343 11.2611C15.0477 11.2474 15.0555 11.2291 15.0561 11.21C15.0586 11.1847 15.0596 11.1592 15.059 11.1338C15.059 10.9417 15.0554 10.7498 15.0607 10.5578C15.0638 10.4387 15.0508 10.3186 15.0747 10.1999C15.0851 10.1484 15.0677 10.1334 15.0148 10.1334H14.1869C14.0646 10.1334 14.0576 10.1276 14.0661 10.006C14.0886 9.72647 14.0919 9.44568 14.076 9.16566C14.0719 9.09822 14.0656 9.03103 14.0644 8.9636C14.0644 8.91284 14.0779 8.90051 14.1282 8.89737C14.1446 8.89737 14.1613 8.89737 14.1777 8.89737C14.4356 8.89737 14.6935 8.89737 14.9512 8.89737C15.031 8.89737 15.0571 8.87054 15.0573 8.79126C15.0573 8.47319 15.0573 8.15527 15.0573 7.83752C15.0573 7.75147 15.0431 7.7389 14.9563 7.7389C14.6039 7.7389 14.2515 7.73955 13.899 7.74084C13.8668 7.74189 13.835 7.73225 13.8088 7.71341C13.7826 7.69457 13.7633 7.66759 13.754 7.63666C13.7487 7.6212 13.7436 7.60548 13.7376 7.59026C13.4071 6.7433 12.8338 6.01284 12.0896 5.49061C11.153 4.82546 10.0986 4.51342 8.95583 4.49602C8.29862 4.48539 7.64311 4.49336 6.98759 4.49336H6.98783Z" fill="#FEA700"/>
<path d="M0.00774439 9.87728H0.000976562V9.64331L0.00774439 9.87728Z" fill="#FDFDFB"/>
<path d="M6.98762 4.49333C7.64313 4.49333 8.29865 4.48535 8.95393 4.49502C10.0967 4.51242 11.1511 4.82446 12.0877 5.48961C12.8319 6.01184 13.4052 6.7423 13.7357 7.58926C13.7417 7.60449 13.7468 7.6202 13.7521 7.63566C13.7614 7.66659 13.7807 7.69357 13.8069 7.7124C13.8331 7.73124 13.8649 7.74089 13.8971 7.73984C14.2495 7.73887 14.602 7.73823 14.9544 7.73791C15.0411 7.73791 15.0552 7.75047 15.0554 7.83652C15.0569 8.15427 15.0569 8.47219 15.0554 8.79026C15.0554 8.86954 15.0291 8.89589 14.9493 8.89637C14.6911 8.89782 14.4332 8.89637 14.1758 8.89637C14.1594 8.89637 14.1427 8.89637 14.1263 8.89637C14.076 8.89951 14.0615 8.91184 14.0625 8.9626C14.0625 9.03003 14.07 9.09722 14.0741 9.16466C14.09 9.44468 14.0867 9.72547 14.0642 10.005C14.055 10.1259 14.062 10.1324 14.185 10.1324H15.0129C15.0658 10.1324 15.0832 10.1474 15.0728 10.1989C15.0486 10.3176 15.0619 10.4377 15.0588 10.5569C15.0535 10.7488 15.0573 10.9407 15.0571 11.1328C15.0577 11.1582 15.0567 11.1837 15.0542 11.209C15.0536 11.2281 15.0458 11.2464 15.0323 11.2601C15.0189 11.2739 15.0009 11.2821 14.9817 11.2832C14.9609 11.2856 14.94 11.2868 14.9191 11.2868L13.8572 11.2851C13.8285 11.2841 13.8001 11.2923 13.7763 11.3084C13.7524 11.3245 13.7342 11.3477 13.7243 11.3748C13.4219 12.1724 12.9226 12.8211 12.2598 13.3521C11.7377 13.7705 11.1479 14.0545 10.512 14.2481C9.93938 14.4224 9.35178 14.497 8.75572 14.4982C7.42826 14.5011 6.10103 14.4982 4.77356 14.4982C4.77058 14.498 4.76759 14.498 4.76461 14.4982C4.72497 14.5045 4.7112 14.4908 4.71168 14.448C4.71386 14.2201 4.71168 13.9921 4.71168 13.764V11.4018C4.71168 11.2994 4.70902 11.2967 4.60509 11.2967H3.40379C3.31774 11.2967 3.30493 11.2851 3.30469 11.1981C3.30469 10.8575 3.30469 10.5172 3.30469 10.1767C3.30469 10.1397 3.31992 10.1365 3.35013 10.1365C3.76104 10.1375 4.17194 10.1375 4.58285 10.1365C4.60219 10.1365 4.62176 10.1365 4.64134 10.1365C4.68606 10.1382 4.70781 10.1155 4.71023 10.0722C4.71023 10.0558 4.71265 10.0394 4.71265 10.0239V8.99354C4.71265 8.91112 4.70467 8.90266 4.62297 8.90266C4.22012 8.90266 3.81671 8.90266 3.41273 8.90266C3.31774 8.90266 3.30566 8.89154 3.30541 8.79752C3.30541 8.47332 3.30541 8.14936 3.30541 7.82564C3.30541 7.75313 3.31556 7.74322 3.38977 7.74322C3.78891 7.74322 4.1879 7.74322 4.58672 7.74322H4.62708C4.69258 7.74129 4.70588 7.72945 4.71095 7.66467C4.71313 7.6405 4.71265 7.61367 4.71265 7.58829V4.61998C4.71265 4.49913 4.71821 4.49357 4.83979 4.49357L6.98762 4.49333ZM9.17557 7.77198H12.4063C12.4788 7.77198 12.4829 7.76643 12.4865 7.70721C12.4882 7.67731 12.4816 7.64753 12.4674 7.62116C12.2448 7.17613 11.9302 6.78348 11.5443 6.46922C10.8107 5.87585 9.97322 5.5672 9.02741 5.5643C8.01368 5.56116 6.9997 5.5643 5.98597 5.5643C5.85376 5.5643 5.84578 5.57227 5.84578 5.70352C5.84578 6.34805 5.84578 6.99258 5.84578 7.63712C5.84578 7.76981 5.84772 7.77174 5.98235 7.77174L9.17557 7.77198ZM9.05883 11.3059H5.99129C5.84868 11.3059 5.84627 11.309 5.84627 11.4509C5.84627 12.0837 5.84627 12.7164 5.84627 13.3492C5.84627 13.3734 5.84796 13.3975 5.84892 13.4217C5.84849 13.4293 5.84968 13.4369 5.85241 13.4439C5.85513 13.451 5.85933 13.4574 5.86473 13.4628C5.87012 13.4681 5.87659 13.4722 5.8837 13.4748C5.89081 13.4775 5.8984 13.4786 5.90597 13.478C5.93884 13.48 5.97195 13.4814 6.00483 13.4814H8.79391C8.88093 13.4814 8.9677 13.4913 9.05472 13.4814C9.20917 13.4626 9.36387 13.4449 9.51856 13.4251C9.76926 13.3899 10.0167 13.3345 10.2584 13.2593C10.4996 13.1851 10.7331 13.0879 10.9558 12.9693C11.5917 12.6374 12.0787 12.1475 12.4302 11.522C12.4578 11.4791 12.4805 11.4333 12.4979 11.3854C12.5158 11.3274 12.5027 11.3083 12.4435 11.3025C12.3468 11.2928 12.2501 11.3066 12.1515 11.3066C11.1204 11.3066 10.0897 11.3064 9.05955 11.3059H9.05883ZM9.34525 10.1341H12.72C12.7364 10.1341 12.7531 10.1341 12.7696 10.1341C12.8397 10.1319 12.8561 10.1165 12.8619 10.0469C12.8916 9.69396 12.8916 9.33918 12.8619 8.98628C12.8573 8.929 12.836 8.90604 12.779 8.89927C12.7596 8.89762 12.7402 8.89705 12.7207 8.89758H5.97679C5.86415 8.89758 5.84578 8.91595 5.8453 9.02762V9.03656C5.8453 9.35609 5.8453 9.67553 5.8453 9.9949C5.8453 10.1341 5.8453 10.1341 5.98476 10.1341H9.34525Z" fill="#FDFDFB"/>
<path d="M9.17599 7.77199H5.98227C5.84764 7.77199 5.8457 7.77006 5.8457 7.63737C5.8457 6.99284 5.8457 6.3483 5.8457 5.70377C5.8457 5.57253 5.85368 5.56455 5.9859 5.56455C6.99963 5.56455 8.0136 5.56213 9.02733 5.56455C9.97266 5.56745 10.8107 5.8761 11.5443 6.46947C11.9306 6.78375 12.2456 7.17658 12.4686 7.6219C12.4827 7.64827 12.4894 7.67805 12.4877 7.70794C12.484 7.76716 12.4799 7.77272 12.4074 7.77272L9.17599 7.77199Z" fill="#FEA700"/>
<path d="M9.05997 11.3059C10.0901 11.3059 11.1203 11.3059 12.1505 11.3059C12.2472 11.3059 12.345 11.2921 12.4425 11.3018C12.5017 11.3076 12.515 11.326 12.4968 11.3847C12.4794 11.4326 12.4567 11.4784 12.4292 11.5212C12.0782 12.1465 11.5912 12.6367 10.9547 12.9685C10.7321 13.0872 10.4986 13.1843 10.2574 13.2586C10.0157 13.3338 9.76823 13.3892 9.51752 13.4244C9.36283 13.4442 9.20813 13.4618 9.05368 13.4807C8.96667 13.4913 8.87989 13.4807 8.79288 13.4807H6.00427C5.97139 13.4807 5.93828 13.4792 5.90541 13.4773C5.89784 13.4778 5.89025 13.4768 5.88314 13.4741C5.87603 13.4715 5.86956 13.4674 5.86416 13.462C5.85877 13.4567 5.85457 13.4503 5.85184 13.4432C5.84912 13.4361 5.84793 13.4286 5.84836 13.421C5.84836 13.3968 5.8457 13.3727 5.8457 13.3485C5.8457 12.7157 5.8457 12.083 5.8457 11.4502C5.8457 11.3083 5.84909 11.3052 5.99073 11.3052L9.05997 11.3059Z" fill="#FEA700"/>
<path d="M9.34615 10.1342H5.98517C5.84595 10.1342 5.8457 10.1342 5.8457 9.99497C5.8457 9.67544 5.8457 9.35599 5.8457 9.03663V9.02769C5.8457 8.91602 5.86456 8.89765 5.97719 8.89765H12.7221C12.7415 8.89713 12.761 8.89769 12.7804 8.89934C12.8374 8.90611 12.8587 8.92907 12.8633 8.98635C12.893 9.33925 12.893 9.69403 12.8633 10.0469C12.8575 10.1165 12.841 10.132 12.7709 10.1342C12.7545 10.1342 12.7378 10.1342 12.7214 10.1342H9.34615Z" fill="#FEA700"/>
</svg>
