<svg width="16" height="13" viewBox="0 0 16 13" fill="none" xmlns="http://www.w3.org/2000/svg">
<path d="M8.57756 1.00005L14.9282 12.0001C14.9867 12.1014 15.0175 12.2164 15.0175 12.3334C15.0175 12.4504 14.9867 12.5654 14.9282 12.6667C14.8697 12.7681 14.7856 12.8522 14.6842 12.9107C14.5829 12.9692 14.4679 13 14.3509 13.0001H1.64956C1.53254 13 1.41758 12.9692 1.31623 12.9107C1.21489 12.8522 1.13073 12.7681 1.07222 12.6667C1.01371 12.5654 0.982909 12.4504 0.98291 12.3334C0.982911 12.2164 1.01372 12.1014 1.07223 12.0001L7.42289 1.00005C7.48141 0.898714 7.56557 0.814563 7.66691 0.756056C7.76825 0.697549 7.88321 0.666748 8.00023 0.666748C8.11725 0.666748 8.2322 0.697549 8.33355 0.756056C8.43489 0.814563 8.51905 0.898714 8.57756 1.00005ZM7.33356 9.66672V11.0001H8.66689V9.66672H7.33356ZM7.33356 5.00005V8.33338H8.66689V5.00005H7.33356Z" fill="currentColor"/>
</svg>
