<svg width="14" height="13" viewBox="0 0 14 13" fill="none" xmlns="http://www.w3.org/2000/svg">
<path d="M12.3333 7.66667V12.3333C12.3333 12.5101 12.263 12.6797 12.138 12.8047C12.013 12.9298 11.8434 13 11.6666 13H2.33325C2.15644 13 1.98687 12.9298 1.86185 12.8047C1.73682 12.6797 1.66659 12.5101 1.66659 12.3333V7.66667H12.3333ZM8.66659 0.333336C9.06035 0.333201 9.44774 0.432719 9.79269 0.622622C10.1376 0.812525 10.4289 1.08664 10.6394 1.41942C10.8499 1.75221 10.9727 2.13286 10.9965 2.52591C11.0202 2.91895 10.9441 3.31162 10.7753 3.66734L12.9999 3.66667C13.1767 3.66667 13.3463 3.73691 13.4713 3.86193C13.5963 3.98696 13.6666 4.15652 13.6666 4.33334V6.33334C13.6666 6.51015 13.5963 6.67972 13.4713 6.80474C13.3463 6.92976 13.1767 7 12.9999 7H0.999919C0.823108 7 0.653538 6.92976 0.528514 6.80474C0.40349 6.67972 0.333252 6.51015 0.333252 6.33334V4.33334C0.333252 4.15652 0.40349 3.98696 0.528514 3.86193C0.653538 3.73691 0.823108 3.66667 0.999919 3.66667L3.22459 3.66734C2.98709 3.16845 2.93434 2.60147 3.07572 2.06734C3.2171 1.5332 3.54344 1.06657 3.99665 0.750504C4.44986 0.434444 5.00052 0.289466 5.55061 0.341381C6.10069 0.393296 6.61451 0.638734 7.00059 1.034C7.21728 0.811686 7.47638 0.635121 7.76255 0.514767C8.04872 0.394413 8.35614 0.332717 8.66659 0.333336ZM5.33325 1.66667C5.07644 1.6668 4.82952 1.76572 4.64366 1.94294C4.4578 2.12016 4.34724 2.3621 4.3349 2.61861C4.32256 2.87513 4.40938 3.12656 4.57737 3.3208C4.74536 3.51505 4.98164 3.63722 5.23725 3.662L5.33325 3.66667H6.33325V2.66667C6.33324 2.41808 6.24064 2.17841 6.07351 1.99439C5.90637 1.81037 5.67669 1.6952 5.42925 1.67134L5.33325 1.66667ZM8.66659 1.66667L8.57059 1.67134C8.3395 1.69348 8.12332 1.79532 7.95911 1.95941C7.7949 2.1235 7.6929 2.3396 7.67059 2.57067L7.66659 2.66667V3.66667H8.66659L8.76259 3.662C9.00994 3.63802 9.2395 3.5228 9.40653 3.33879C9.57356 3.15479 9.66609 2.91518 9.66609 2.66667C9.66609 2.41816 9.57356 2.17855 9.40653 1.99454C9.2395 1.81054 9.00994 1.69532 8.76259 1.67134L8.66659 1.66667Z" fill="currentColor"/>
</svg>
