<svg width="16" height="16" viewBox="0 0 16 16" fill="none" xmlns="http://www.w3.org/2000/svg">
<path d="M8 16C12.4183 16 16 12.4183 16 8C16 3.58172 12.4183 0 8 0C3.58172 0 0 3.58172 0 8C0 12.4183 3.58172 16 8 16Z" fill="currentColor"/>
<path d="M13.9187 8.66685L13.2833 6.71007C13.2833 6.70995 13.2832 6.70986 13.2832 6.70973L12.0224 2.82832C11.9542 2.62595 11.7725 2.49564 11.5592 2.49564C11.5582 2.49564 11.5573 2.49567 11.5564 2.49567C11.343 2.49679 11.1624 2.62842 11.0964 2.83123L9.89716 6.52342H6.10503L4.90353 2.83101C4.83753 2.62839 4.657 2.49676 4.44353 2.49564C4.44266 2.49564 4.44172 2.49561 4.44078 2.49561C4.22741 2.49561 4.04575 2.62595 3.9765 2.83129L2.71894 6.7102C2.71891 6.71023 2.71891 6.71029 2.71891 6.71032L2.08134 8.66689C1.98691 8.95773 2.08941 9.27379 2.33644 9.45348L7.84069 13.4527C7.8415 13.4533 7.84244 13.4538 7.84328 13.4543C7.84547 13.4559 7.84762 13.4575 7.84987 13.459C7.85125 13.4599 7.85266 13.4608 7.85406 13.4617C7.8565 13.4633 7.859 13.4646 7.86147 13.4661C7.86241 13.4667 7.86334 13.4672 7.86428 13.4678C7.86697 13.4693 7.86956 13.471 7.87228 13.4725C7.87247 13.4726 7.87266 13.4727 7.87284 13.4728C7.87353 13.4731 7.87422 13.4734 7.87491 13.4737C7.87566 13.4741 7.87641 13.4746 7.87716 13.475C7.87809 13.4754 7.87903 13.4758 7.87994 13.4763C7.88262 13.4776 7.88537 13.4788 7.88809 13.48C7.89216 13.4819 7.89625 13.4837 7.90041 13.4853C7.90266 13.4862 7.90487 13.487 7.90712 13.4879C7.90916 13.4886 7.91119 13.4894 7.91325 13.49C7.91422 13.4904 7.91519 13.4908 7.91619 13.4911C7.91709 13.4914 7.918 13.4917 7.91891 13.4919C7.92234 13.493 7.92581 13.4938 7.92928 13.4948C7.93209 13.4955 7.93491 13.4964 7.93775 13.4971C7.93947 13.4975 7.94122 13.4978 7.94294 13.4982C7.94631 13.4989 7.94969 13.4995 7.95306 13.5001C7.9545 13.5004 7.95584 13.5008 7.95728 13.501C7.95884 13.5013 7.96037 13.5013 7.96194 13.5015C7.96419 13.5018 7.9664 13.5023 7.96866 13.5026C7.96956 13.5027 7.97047 13.5027 7.97134 13.5028C7.97987 13.5037 7.98844 13.5042 7.99703 13.5043C7.99787 13.5043 7.99875 13.5044 7.99959 13.5044H7.99972H7.99984C8.00069 13.5044 8.00156 13.5043 8.00244 13.5043C8.011 13.5042 8.01956 13.5037 8.02809 13.5028C8.02897 13.5027 8.02987 13.5027 8.03075 13.5026C8.033 13.5023 8.03525 13.5018 8.03753 13.5015C8.03906 13.5013 8.04059 13.5013 8.04212 13.501C8.04353 13.5008 8.04487 13.5004 8.04628 13.5001C8.04969 13.4995 8.05309 13.4989 8.05647 13.4982C8.05822 13.4979 8.05994 13.4975 8.06169 13.4971C8.0645 13.4964 8.06728 13.4956 8.07009 13.4948C8.07359 13.4939 8.07709 13.493 8.08053 13.4919C8.08141 13.4917 8.08231 13.4914 8.08319 13.4911C8.08416 13.4908 8.08509 13.4904 8.08606 13.4901C8.08812 13.4894 8.09019 13.4886 8.09225 13.4879C8.09447 13.487 8.09666 13.4862 8.09887 13.4854C8.10306 13.4837 8.10719 13.4819 8.11128 13.48C8.114 13.4788 8.11675 13.4776 8.11944 13.4763C8.12034 13.4758 8.12128 13.4754 8.12222 13.475C8.123 13.4746 8.12372 13.4741 8.1245 13.4737C8.12516 13.4734 8.12581 13.4732 8.12647 13.4728C8.12662 13.4728 8.12675 13.4727 8.12687 13.4726C8.13006 13.4709 8.13312 13.4689 8.13625 13.467C8.13665 13.4668 8.13706 13.4666 8.13747 13.4663C8.14009 13.4648 8.14278 13.4633 8.14537 13.4617C8.14669 13.4608 8.14797 13.46 8.14925 13.4591C8.15156 13.4576 8.15381 13.4559 8.15609 13.4543C8.15687 13.4537 8.15778 13.4534 8.15856 13.4528L13.6637 9.45335C13.9106 9.27379 14.0131 8.95773 13.9187 8.66685ZM12.4727 7.06373L8.73125 11.8577L10.2897 7.06373H12.4727ZM7.99981 12.3597L7.86419 11.9419L6.28059 7.06373H9.72156L7.99981 12.3597ZM5.71244 7.06373L7.26875 11.8579L3.52934 7.06373H5.71244ZM11.5599 3.15345L12.6545 6.52339H10.4653L11.5599 3.15345ZM4.44019 3.15336L5.53678 6.52336H3.34759L4.44019 3.15336ZM6.60762 11.8889L2.65416 9.01639C2.597 8.97479 2.57334 8.90139 2.59522 8.83401L3.07541 7.36036L6.60762 11.8889ZM12.9264 7.3607L13.4047 8.83373C13.4267 8.90139 13.403 8.97479 13.3459 9.01629L9.39303 11.888L12.9264 7.3607Z" fill="white"/>
</svg>
