<svg width="31" height="26" viewBox="0 0 31 26" fill="none" xmlns="http://www.w3.org/2000/svg">
<path d="M11.4406 13.3333H14.334C15.9253 13.3333 17.4514 13.9654 18.5766 15.0907C19.7018 16.2159 20.334 17.742 20.334 19.3333H10.9993L11.0007 20.6666H21.6673V19.3333C21.6631 17.9146 21.2532 16.5267 20.486 15.3333H24.334C25.5943 15.3329 26.829 15.6899 27.8947 16.3627C28.9604 17.0355 29.8136 17.9966 30.3553 19.1346C27.202 23.296 22.0966 26 16.334 26C12.6527 26 9.53398 25.2133 7.00065 23.8333V11.428C8.6228 11.6603 10.1546 12.3177 11.4406 13.3333ZM5.66732 23.3333C5.66732 23.6869 5.52684 24.0261 5.27679 24.2761C5.02674 24.5262 4.68761 24.6666 4.33398 24.6666H1.66732C1.3137 24.6666 0.974557 24.5262 0.724509 24.2761C0.47446 24.0261 0.333984 23.6869 0.333984 23.3333V11.3333C0.333984 10.9797 0.47446 10.6405 0.724509 10.3905C0.974557 10.1404 1.3137 9.99996 1.66732 9.99996H4.33398C4.68761 9.99996 5.02674 10.1404 5.27679 10.3905C5.52684 10.6405 5.66732 10.9797 5.66732 11.3333V23.3333ZM23.0007 4.66663C24.0615 4.66663 25.0789 5.08805 25.8291 5.8382C26.5792 6.58834 27.0006 7.60576 27.0006 8.66663C27.0006 9.72749 26.5792 10.7449 25.8291 11.4951C25.0789 12.2452 24.0615 12.6666 23.0007 12.6666C21.9398 12.6666 20.9224 12.2452 20.1722 11.4951C19.4221 10.7449 19.0007 9.72749 19.0007 8.66663C19.0007 7.60576 19.4221 6.58834 20.1722 5.8382C20.9224 5.08805 21.9398 4.66663 23.0007 4.66663ZM13.6673 0.666626C14.7282 0.666626 15.7456 1.08805 16.4957 1.8382C17.2459 2.58834 17.6673 3.60576 17.6673 4.66663C17.6673 5.72749 17.2459 6.74491 16.4957 7.49505C15.7456 8.2452 14.7282 8.66663 13.6673 8.66663C12.6065 8.66663 11.589 8.2452 10.8389 7.49505C10.0887 6.74491 9.66732 5.72749 9.66732 4.66663C9.66732 3.60576 10.0887 2.58834 10.8389 1.8382C11.589 1.08805 12.6065 0.666626 13.6673 0.666626Z" fill="CurrentColor"/>
</svg>
