<svg width="12" height="14" viewBox="0 0 12 14" fill="none" xmlns="http://www.w3.org/2000/svg">
<path d="M10.6666 0.333374H1.33325C1.15644 0.333374 0.986872 0.403612 0.861848 0.528636C0.736823 0.65366 0.666586 0.82323 0.666586 1.00004V13C0.666586 13.1769 0.736823 13.3464 0.861848 13.4714C0.986872 13.5965 1.15644 13.6667 1.33325 13.6667H10.6666C10.8434 13.6667 11.013 13.5965 11.138 13.4714C11.263 13.3464 11.3333 13.1769 11.3333 13V1.00004C11.3333 0.82323 11.263 0.65366 11.138 0.528636C11.013 0.403612 10.8434 0.333374 10.6666 0.333374ZM7.99992 6.33337V4.33337L11.3333 7.00004L7.99992 9.66671V7.66671H3.99992V6.33337H7.99992Z" fill="currentColor"/>
</svg>
