<svg width="12" height="12" viewBox="0 0 12 12" fill="none" xmlns="http://www.w3.org/2000/svg">
<path d="M6.00033 11.8333C2.77858 11.8333 0.166992 9.22171 0.166992 5.99996C0.166992 2.77821 2.77858 0.166626 6.00033 0.166626C9.22208 0.166626 11.8337 2.77821 11.8337 5.99996C11.8337 9.22171 9.22208 11.8333 6.00033 11.8333ZM5.41699 7.74996V8.91663H6.58366V7.74996H5.41699ZM6.58366 6.79038C7.05247 6.64908 7.45493 6.3441 7.71775 5.93098C7.98057 5.51785 8.08627 5.02407 8.01559 4.53956C7.94491 4.05506 7.70255 3.61205 7.33267 3.29123C6.96278 2.9704 6.48996 2.79311 6.00033 2.79163C5.52832 2.79159 5.07088 2.95505 4.70579 3.25421C4.3407 3.55336 4.0905 3.96974 3.99774 4.43254L5.14224 4.66179C5.17472 4.49929 5.25268 4.34936 5.36704 4.22944C5.4814 4.10951 5.62747 4.02453 5.78824 3.98437C5.94901 3.94422 6.11788 3.95054 6.2752 4.00261C6.43252 4.05468 6.57182 4.15035 6.67689 4.27849C6.78197 4.40663 6.84849 4.56198 6.86872 4.72645C6.88896 4.89092 6.86207 5.05776 6.79119 5.20755C6.72031 5.35734 6.60836 5.48392 6.46835 5.57257C6.32834 5.66121 6.16604 5.70828 6.00033 5.70829C5.84562 5.70829 5.69724 5.76975 5.58785 5.87915C5.47845 5.98854 5.41699 6.13692 5.41699 6.29163V7.16663H6.58366V6.79038Z" fill="currentColor"/>
</svg>
