<svg width="15" height="15" viewBox="0 0 15 15" fill="none" xmlns="http://www.w3.org/2000/svg">
<path d="M7.26624 0.399902L13.8656 1.34324L14.8082 7.94324L8.68024 14.0712C8.55522 14.1962 8.38568 14.2664 8.20891 14.2664C8.03213 14.2664 7.86259 14.1962 7.73757 14.0712L1.13757 7.47124C1.01259 7.34622 0.942383 7.17668 0.942383 6.9999C0.942383 6.82313 1.01259 6.65359 1.13757 6.52857L7.26624 0.399902ZM9.15157 6.05724C9.27541 6.18103 9.42242 6.27922 9.5842 6.3462C9.74598 6.41318 9.91938 6.44764 10.0945 6.4476C10.2696 6.44757 10.443 6.41305 10.6047 6.34602C10.7665 6.27898 10.9134 6.18074 11.0372 6.0569C11.161 5.93307 11.2592 5.78606 11.3262 5.62428C11.3932 5.46249 11.4276 5.2891 11.4276 5.114C11.4276 4.9389 11.3931 4.76552 11.326 4.60376C11.259 4.442 11.1607 4.29503 11.0369 4.17124C10.9131 4.04744 10.7661 3.94925 10.6043 3.88227C10.4425 3.81529 10.2691 3.78084 10.094 3.78087C9.74037 3.78093 9.40125 3.92147 9.15124 4.17157C8.90123 4.42167 8.76081 4.76084 8.76087 5.11447C8.76094 5.4681 8.90147 5.80723 9.15157 6.05724Z" fill="currentColor"/>
</svg>
