<svg width="20" height="21" viewBox="0 0 20 21" fill="none" xmlns="http://www.w3.org/2000/svg">
<path d="M6.40061 15.5L10.0006 11.9L13.6006 15.5L15.0006 14.1L11.4006 10.5L15.0006 6.9L13.6006 5.5L10.0006 9.1L6.40061 5.5L5.00061 6.9L8.60061 10.5L5.00061 14.1L6.40061 15.5ZM10.0006 20.5C8.61728 20.5 7.31728 20.2373 6.10061 19.712C4.88394 19.1873 3.82561 18.475 2.92561 17.575C2.02561 16.675 1.31328 15.6167 0.78861 14.4C0.263277 13.1833 0.000610352 11.8833 0.000610352 10.5C0.000610352 9.11667 0.263277 7.81667 0.78861 6.6C1.31328 5.38333 2.02561 4.325 2.92561 3.425C3.82561 2.525 4.88394 1.81233 6.10061 1.287C7.31728 0.762333 8.61728 0.5 10.0006 0.5C11.3839 0.5 12.6839 0.762333 13.9006 1.287C15.1173 1.81233 16.1756 2.525 17.0756 3.425C17.9756 4.325 18.6879 5.38333 19.2126 6.6C19.7379 7.81667 20.0006 9.11667 20.0006 10.5C20.0006 11.8833 19.7379 13.1833 19.2126 14.4C18.6879 15.6167 17.9756 16.675 17.0756 17.575C16.1756 18.475 15.1173 19.1873 13.9006 19.712C12.6839 20.2373 11.3839 20.5 10.0006 20.5Z" fill="currentColor"/>
</svg>
