<svg width="295" height="297" viewBox="0 0 295 297" fill="none" xmlns="http://www.w3.org/2000/svg">
<path d="M118.603 9.86623L118.538 9.93151L119.246 10.2075C120.14 10.5559 120.939 10.7931 121.626 10.886C122.305 10.9778 122.936 10.9369 123.442 10.6573C124.45 10.0999 124.782 8.87164 124.641 7.43894L124.64 7.42685L124.638 7.41484C124.423 5.96562 123.825 4.79801 122.58 4.29296C121.977 4.04843 121.235 3.98175 120.406 4.03541C119.571 4.08941 118.612 4.26793 117.55 4.54577L117.55 4.54575L117.546 4.54681C115.821 5.01319 114.777 5.33177 113.264 5.79354C112.997 5.8752 112.714 5.96134 112.411 6.05356L111.221 6.41551L112.331 6.9779L112.332 6.97874C113.409 7.52461 113.958 7.80258 115.044 8.28477C115.294 8.40066 115.524 8.50865 115.743 8.61098C116.737 9.07624 117.48 9.42457 118.603 9.86623ZM118.08 6.89534H118.103L118.126 6.89323C118.492 6.85957 118.769 6.84495 118.981 6.85235C119.154 6.85839 119.251 6.87856 119.304 6.89627C119.329 6.921 119.371 6.97128 119.423 7.06159C119.492 7.18173 119.562 7.3474 119.62 7.55536C119.661 7.70195 119.673 7.81004 119.671 7.87939C119.631 7.88503 119.571 7.88855 119.483 7.88481C119.338 7.87872 119.174 7.85749 118.961 7.82992C118.925 7.82532 118.888 7.82054 118.849 7.81563C118.817 7.80673 118.782 7.79645 118.745 7.78557C118.654 7.75857 118.549 7.72782 118.43 7.70497C118.336 7.48251 118.25 7.29385 118.165 7.11071L118.164 7.10822C118.131 7.03711 118.099 6.96681 118.067 6.89534C118.068 6.89534 118.07 6.89534 118.072 6.89534H118.08Z" stroke="#38363F"/>
<path d="M129.72 12.2947C129.722 12.2815 129.725 12.2682 129.728 12.2548C130.572 12.4407 131.195 12.5625 132.131 12.716C132.192 12.8716 132.248 13.0072 132.302 13.1399L132.303 13.1415C132.387 13.346 132.468 13.5437 132.566 13.8078L132.663 14.071L132.939 14.125C135.031 14.5355 136.117 14.742 138.418 15.085L139.311 15.2182L138.949 14.3902C136.817 9.51155 135.846 6.93203 134.379 3.03262C134.227 2.6304 134.071 2.21413 133.907 1.77985L133.768 1.41066L133.376 1.46027C130.673 1.80279 129.317 2.00901 126.68 2.48877L126.348 2.54932L126.28 2.88071C125.494 6.73448 125.091 8.44883 124.448 11.1873C124.442 11.2135 124.435 11.2398 124.429 11.2662L123.875 11.8285L124.675 12.065C125.873 12.4193 126.671 12.6258 127.732 12.9001C128.111 12.9981 128.524 13.1049 129.001 13.2301L129.532 13.3698L129.621 12.8277C129.653 12.6316 129.686 12.468 129.719 12.297L129.72 12.2947ZM131.064 8.62541C130.975 8.61565 130.888 8.60587 130.8 8.59603L130.799 8.59589C130.634 8.5773 130.468 8.55853 130.284 8.53968C130.326 8.15064 130.369 7.80519 130.412 7.45669C130.419 7.40229 130.426 7.34782 130.432 7.29309C130.458 7.08886 130.483 6.88166 130.508 6.6628C130.687 7.31859 130.846 7.88786 131.064 8.62541Z" stroke="#38363F"/>
<path d="M144.906 13.7962C144.846 13.5328 144.787 13.27 144.72 12.9718L144.725 12.9721C146.983 13.1108 148.646 12.7796 149.678 11.8137C150.237 11.2909 150.503 10.5572 150.568 9.70232C150.632 8.85188 150.502 7.83861 150.227 6.68845C149.674 4.37699 148.755 2.74093 147.472 1.82251L147.464 1.81661L147.455 1.81105C146.197 0.985976 144.465 0.564042 142.298 0.705802C140.208 0.842508 139.19 0.911257 137.161 1.11704L136.624 1.17148L136.719 1.70276C137.19 4.33182 137.544 6.31215 137.898 8.29263C138.251 10.2731 138.605 12.2538 139.077 14.8832L139.141 15.2433L139.504 15.2908C141.594 15.5642 142.677 15.7015 144.705 15.9071L145.392 15.9767L145.244 15.3026C145.109 14.6861 145.008 14.2406 144.907 13.7967L144.906 13.7962ZM144.467 6.83322L144.467 6.83324L144.469 6.8435C144.532 7.12878 144.557 7.35661 144.551 7.52917C144.546 7.66067 144.524 7.73568 144.505 7.77561C144.414 7.84168 144.172 7.94376 143.678 7.94376H143.677H143.676H143.676H143.675H143.674H143.673H143.672H143.672H143.671H143.67H143.669H143.669H143.668H143.667H143.666C143.445 7.027 143.317 6.41171 143.142 5.53534C143.568 5.56171 143.844 5.66748 143.976 5.76425C144.178 5.93121 144.344 6.20669 144.467 6.83322Z" stroke="#38363F"/>
<path d="M158.273 14.3522C158.192 14.0643 158.112 13.7778 158.024 13.4548C160.158 13.4994 161.707 13.0176 162.575 12.0573C163.048 11.5342 163.274 10.8266 163.302 9.99729C163.33 9.17239 163.164 8.19408 162.819 7.07413C162.194 4.82623 161.206 3.21717 159.951 2.24386C158.704 1.27692 156.98 0.709073 154.819 0.637124C152.72 0.5 151.696 0.5 149.609 0.5H149.607H148.969L149.122 1.11971L149.122 1.12156C150.604 7.13047 151.346 10.1374 152.896 16.1492L152.989 16.511L153.362 16.5241C155.325 16.5927 156.342 16.5927 158.229 16.5927H158.23H158.876L158.714 15.9671C158.544 15.3132 158.408 14.8311 158.274 14.353L158.273 14.3522ZM156.662 5.92673L156.705 5.9707L156.758 6.00279C156.816 6.03805 156.897 6.11844 156.993 6.30695C157.087 6.49079 157.176 6.73785 157.272 7.06116C157.338 7.39395 157.378 7.64038 157.385 7.8298C157.392 8.02831 157.357 8.07745 157.357 8.07824C157.293 8.16354 157.155 8.28536 156.613 8.28536H156.612H156.612H156.611H156.61H156.609H156.609H156.608H156.607H156.606H156.605H156.605H156.605C156.368 7.29394 156.189 6.61349 155.928 5.6761C156.324 5.70921 156.554 5.81756 156.662 5.92673Z" stroke="#38363F"/>
<path d="M171.075 14.9325C170.851 14.2896 170.691 13.8316 170.507 13.2412C172.505 13.155 173.897 12.6689 174.687 11.8686L174.704 11.8508L174.72 11.8314C175.504 10.8599 175.416 9.46072 174.804 7.66806C174.172 5.81693 173.242 4.49166 171.994 3.59862L171.986 3.59272L171.978 3.58716C170.776 2.79869 169.159 2.08809 167.063 1.80354C165.037 1.46125 164.015 1.32327 161.986 1.11754L161.235 1.04141L161.458 1.7626C162.333 4.59459 162.972 6.72701 163.612 8.86104L163.612 8.86138C164.252 10.9955 164.893 13.1313 165.769 15.9675L165.882 16.3339L166.266 16.3195C168.094 16.2509 169.045 16.182 170.799 16.0452L171.446 15.9948L171.232 15.3823C171.176 15.2214 171.124 15.0726 171.075 14.9325ZM169.736 8.43945C169.686 8.49198 169.564 8.55605 169.107 8.5588C168.957 8.07908 168.834 7.69069 168.711 7.30293L168.711 7.3029C168.62 7.01534 168.528 6.72812 168.426 6.40393C168.756 6.47241 168.99 6.56538 169.11 6.65691C169.264 6.77366 169.486 7.06842 169.671 7.62032C169.73 7.89657 169.755 8.10582 169.755 8.25645C169.755 8.36807 169.741 8.42161 169.736 8.43945Z" stroke="#38363F"/>
<path d="M176.258 15.0621L176.767 15.0305L176.817 15.4279C177.622 15.3259 178.225 15.2579 178.831 15.1897L178.832 15.1896C179.438 15.1213 180.047 15.0527 180.859 14.9498L181.362 14.8861L181.291 14.384C181.256 14.1357 181.221 13.9402 181.188 13.7529L181.187 13.7509C181.184 13.729 181.18 13.7073 181.176 13.6856C181.469 13.6638 181.727 13.642 181.983 13.6204L181.984 13.6203C182.313 13.5925 182.64 13.5649 183.038 13.5373C183.117 13.6463 183.19 13.7419 183.26 13.8331L183.263 13.8362C183.38 13.9896 183.488 14.1306 183.612 14.3187L183.783 14.5792L184.093 14.54C184.964 14.4296 185.602 14.3359 186.248 14.2411C186.782 14.1626 187.322 14.0834 188.002 13.9934L188.92 13.872L188.315 13.171C185.971 10.4547 184.769 8.89828 182.218 5.22232L182.117 5.07736L181.948 5.02766C179.72 4.37387 178.45 4.07872 176.451 3.61387C176.138 3.54124 175.808 3.46448 175.454 3.38155L174.748 3.21649L174.844 3.93469C175.262 7.05976 175.518 9.11492 175.895 12.1462C176.004 13.0206 176.123 13.9762 176.258 15.0621ZM180.537 10.1294C180.46 9.72058 180.393 9.3725 180.329 9.04279C180.536 9.40082 180.742 9.74462 180.977 10.1294H180.976H180.973H180.97H180.967H180.964H180.961H180.957H180.954H180.951H180.948H180.945H180.942H180.938H180.935H180.932H180.929H180.926H180.923H180.919H180.916H180.913H180.91H180.907H180.904H180.9H180.897H180.894H180.891H180.888H180.885H180.881H180.878H180.875H180.872H180.869H180.866H180.862H180.859H180.856H180.853H180.85H180.846H180.843H180.84H180.837H180.834H180.83H180.827H180.824H180.821H180.818H180.815H180.811H180.808H180.805H180.802H180.798H180.795H180.792H180.789H180.786H180.782H180.779H180.776H180.773H180.77H180.766H180.763H180.76H180.757H180.753H180.75H180.747H180.744H180.741H180.737H180.734H180.731H180.728H180.724H180.721H180.718H180.715H180.711H180.708H180.705H180.702H180.698H180.695H180.692H180.688H180.685H180.682H180.679H180.675H180.672H180.669H180.666H180.662H180.659H180.656H180.652H180.649H180.646H180.642H180.639H180.636H180.633H180.629H180.626H180.623H180.619H180.616H180.613H180.609H180.606H180.603H180.599H180.596H180.593H180.589H180.586H180.582H180.579H180.576H180.572H180.569H180.566H180.562H180.559H180.556H180.552H180.549H180.545H180.542H180.539H180.537Z" stroke="#38363F"/>
<path d="M193.399 13.104L193.399 13.104L193.405 13.1031C195.11 12.8265 196.632 12.409 197.353 12.1168C197.525 12.0469 197.681 11.9786 197.807 11.9101C197.91 11.8538 198.081 11.753 198.186 11.5863C198.25 11.4853 198.298 11.3442 198.275 11.1799C198.252 11.0238 198.173 10.9108 198.107 10.8403C197.992 10.7186 197.836 10.6397 197.714 10.586C197.504 10.4816 197.216 10.3805 196.906 10.2717C196.863 10.2566 196.819 10.2413 196.775 10.2258C196.392 10.0905 195.935 9.92493 195.414 9.69394L195.397 9.68646L195.38 9.68023C194.87 9.49787 194.275 9.24461 193.569 8.9445C193.506 8.91764 193.442 8.89041 193.377 8.86281C192.593 8.52946 191.692 8.15002 190.67 7.77014L190.663 7.76753L190.656 7.76513C189.953 7.5276 189.368 7.3216 188.817 7.12743C187.803 6.7701 186.903 6.45288 185.589 6.05313L184.484 5.71718L184.995 6.75266L184.996 6.75407C186.342 9.48421 187.014 10.8464 188.291 13.5729L188.449 13.9088L188.816 13.8556C189.766 13.7179 190.463 13.5974 191.146 13.4776C191.185 13.4708 191.224 13.464 191.263 13.4572C191.906 13.3445 192.548 13.2318 193.399 13.104ZM191.42 10.0558C191.853 10.1714 192.185 10.3047 192.358 10.3921C192.563 10.4962 192.752 10.6422 192.895 10.8837L192.926 10.9369C192.766 10.9482 192.568 10.9486 192.315 10.9486H192.313H192.311H192.31H192.308H192.307H192.305H192.304H192.302H192.3H192.299H192.297H192.296H192.294H192.293H192.291H192.29H192.288H192.287H192.285H192.284H192.282H192.28H192.279H192.277H192.276H192.274H192.273H192.271H192.27H192.268H192.267H192.265H192.264H192.263H192.261H192.26H192.258H192.257H192.255H192.254H192.252H192.251H192.249H192.248H192.246H192.245H192.244H192.242H192.241H192.239H192.238H192.236H192.235H192.233H192.232H192.231H192.229H192.228H192.226H192.225H192.223H192.222H192.221H192.219H192.218H192.216H192.215H192.214H192.212H192.211H192.209H192.208H192.207H192.205H192.204H192.203H192.201H192.2H192.198H192.197H192.196H192.194H192.193H192.192H192.19H192.189H192.187H192.186H192.185H192.183H192.182H192.181H192.179H192.178H192.177H192.175H192.174H192.173H192.171H192.17H192.169H192.167H192.166H192.165H192.163H192.162H192.161H192.159H192.158H192.157H192.156H192.154H192.153H192.152H192.15H192.149H192.148H192.146H192.145H192.144H192.142H192.141H192.14H192.139H192.137H192.136H192.135H192.133H192.132H192.131H192.13H192.128H192.127H192.126H192.125H192.123H192.122H192.121H192.119H192.118H192.117H192.116H192.114H192.113H192.112H192.111H192.109H192.108H192.107H192.106H192.104H192.103H192.102H192.101H192.099H192.098H192.097H192.096H192.094H192.093H192.092H192.091H192.089H192.088H192.087H192.086H192.084H192.083H192.082H192.081H192.08H192.078H192.077H192.076H192.075H192.073H192.072H192.071H192.07H192.069H192.067H192.066H192.065H192.064H192.062H192.061H192.06H192.059H192.058H192.056H192.055H192.054H192.053H192.052H192.05H192.049H192.048H192.047H192.046H192.044H192.043H192.042H192.041H192.04H192.038H192.037H192.036H192.035H192.034H192.032H192.031H192.03H192.029H192.028H192.026H192.025H192.024H192.023H192.022H192.02H192.019H192.018H192.017H192.016H192.014H192.013H192.012H192.011H192.01H192.009H192.007H192.006H192.005H192.004H192.003H192.001H192H191.999H191.998H191.997H191.995H191.994H191.993H191.992H191.991H191.99H191.988H191.987H191.986H191.985H191.984H191.982H191.981H191.98H191.979H191.978H191.977H191.975H191.974H191.973H191.972H191.971H191.969H191.968H191.967H191.966H191.965H191.963H191.962H191.961H191.96H191.959H191.958H191.956H191.955H191.954H191.953H191.952H191.95H191.949H191.948H191.947H191.946H191.944H191.943H191.942H191.941H191.94H191.939H191.937H191.936H191.935H191.934H191.933H191.931H191.93C191.76 10.6522 191.615 10.3973 191.469 10.1421L191.469 10.1418C191.452 10.1132 191.436 10.0845 191.42 10.0558Z" stroke="#38363F"/>
<path d="M54.9893 34.3428L53.9087 35.1859L55.2783 35.2366C60.788 35.441 64.5406 35.7129 70.377 36.5969C76.0498 37.4975 80.2637 37.0143 84.8152 34.847C88.7635 32.9669 92.8116 29.9202 97.546 26.3569C98.2113 25.8562 98.8901 25.3453 99.5841 24.8259C100.957 23.8109 102.216 22.888 103.364 22.0474C106.978 19.3993 109.476 17.5689 110.878 16.2528C111.348 15.811 111.722 15.3899 111.978 14.9861C112.232 14.5844 112.393 14.1624 112.374 13.7323C112.334 12.8168 111.536 12.2506 110.508 11.8683C109.817 11.6117 109.393 11.3211 108.95 11.0177C108.786 10.9049 108.619 10.7904 108.434 10.6752C107.743 10.243 106.961 9.9248 105.551 9.9248H105.486L105.423 9.94136C87.516 14.6682 69.6682 22.8904 54.9893 34.3428ZM91.2031 22.5005L90.9714 22.6478V22.7144C90.7434 22.8579 90.5199 22.9986 90.3011 23.1365C88.996 23.9585 87.8539 24.6778 86.8626 25.2669C85.6445 25.9908 84.6889 26.4966 83.9655 26.7522C82.4039 27.2795 81.0136 27.4637 79.6428 27.2119C79.4464 27.1722 79.2769 27.1435 79.1198 27.1199C84.507 23.4323 90.4938 20.1185 96.4276 17.5099C96.596 17.5535 96.7322 17.5812 96.8601 17.6071L96.8622 17.6075C97.0285 17.6412 97.1801 17.6721 97.3951 17.7343L97.4065 17.7377L97.4182 17.7404C97.676 17.8019 97.8415 17.8711 97.938 17.9317C97.9673 17.95 97.9863 17.965 97.9985 17.9759C97.9941 17.9851 97.9879 17.9968 97.9791 18.0113C97.9299 18.0917 97.825 18.2108 97.6309 18.3622C97.0423 18.8212 95.8494 19.5712 94.0225 20.7199C93.2092 21.2313 92.2703 21.8216 91.2031 22.5005ZM98.0176 17.9967C98.0175 17.9967 98.0172 17.9962 98.0167 17.9952C98.0173 17.9962 98.0176 17.9967 98.0176 17.9967ZM98.0075 17.9525C98.0077 17.9505 98.0079 17.9495 98.008 17.9494C98.0081 17.9494 98.008 17.9504 98.0075 17.9525Z" stroke="#38363F"/>
<path d="M83.9765 38.8908L83.8301 39.0372V39.2443V39.3126V39.6809L84.1819 39.7901C87.1411 40.7085 88.6234 41.2931 90.961 42.2505C90.9867 42.2753 91.0134 42.298 91.0407 42.3188C91.2571 42.4833 91.5579 42.5621 91.8706 42.6074L92.132 41.65L91.9709 41.5839C91.9484 41.5746 91.9259 41.5654 91.9036 41.5563C92.0281 41.4385 92.1974 41.3029 92.406 41.1502C92.6966 40.9374 93.03 40.7148 93.3833 40.4789C93.5733 40.3521 93.7691 40.2214 93.9671 40.0863C94.4074 39.7858 94.8562 39.4651 95.2188 39.1441C96.1811 39.5307 96.8713 39.8252 97.6106 40.1405C98.0087 40.3104 98.4211 40.4863 98.8979 40.686C98.7084 40.8973 98.4801 41.1197 98.2279 41.3526C98.0985 41.4721 97.9616 41.5953 97.8232 41.7199C97.5064 42.005 97.1818 42.2973 96.9209 42.568C96.7297 42.7663 96.55 42.9753 96.4168 43.188C96.2871 43.3951 96.1706 43.6542 96.1768 43.9416C96.1836 44.259 96.337 44.5249 96.5817 44.7214C96.8002 44.8969 97.0926 45.0203 97.434 45.1125C98.6322 45.6461 99.5761 46.0826 100.512 46.5154C101.684 47.0573 102.843 47.5935 104.474 48.3072L104.926 48.5053L105.13 48.0553C110.355 36.509 118.66 25.3123 128.754 17.722L129.669 17.0342L128.543 16.8303C124.786 16.1503 123.115 15.7437 120.026 14.9268L119.86 14.8829L119.703 14.9501C106.646 20.5054 94.0616 28.8039 83.9765 38.8908ZM104.37 30.5281C107.541 27.8139 109.623 26.1956 112.523 24.2109C110.283 26.2736 108.585 28.1147 106.063 31.1432C105.651 30.995 105.316 30.8728 104.98 30.7502L104.98 30.7501C104.782 30.6779 104.584 30.6057 104.37 30.5281Z" stroke="#38363F"/>
<path d="M120.232 44.0953L120.236 44.0965C124.261 45.222 128.438 44.8034 131.928 42.8926L131.928 42.8926L131.932 42.8905C135.356 40.978 138.511 36.9837 141.614 31.8543C143.168 29.2862 144.292 27.2159 145.013 25.5731C145.722 23.9554 146.072 22.682 145.997 21.7307C145.954 20.761 145.538 19.9982 144.718 19.4642C143.933 18.9536 142.808 18.6709 141.369 18.532C138.545 18.2592 137.207 18.1237 134.053 17.6474L133.853 17.6172L133.688 17.7352C122.652 25.6287 112.703 36.4012 105.662 48.0689L105.367 48.5567L105.889 48.7852C108.867 50.0888 110.432 50.7094 114.019 51.8759L114.393 50.9509C114.003 50.7612 113.813 50.5783 113.725 50.4319C113.646 50.301 113.623 50.158 113.669 49.9671C113.717 49.7606 113.845 49.5068 114.068 49.2022C114.288 48.9012 114.581 48.5767 114.931 48.229C115.395 47.7663 115.928 47.2911 116.486 46.7939C116.777 46.5349 117.074 46.2699 117.372 45.9976C118.121 45.3123 118.864 44.5883 119.423 43.8531C119.504 43.8772 119.578 43.8998 119.653 43.9226L119.654 43.9228C119.822 43.9741 119.993 44.0261 120.232 44.0953ZM127.211 33.3738C129.363 30.6992 130.676 29.2341 132.968 26.7876C133.007 26.7977 133.047 26.8061 133.087 26.8129C133.221 26.8356 133.352 26.8369 133.467 26.837C133.842 26.8994 134.052 26.9957 134.16 27.0838C134.241 27.1493 134.28 27.2191 134.286 27.3302C134.256 27.4997 134.134 27.8071 133.853 28.273C133.566 28.7512 133.142 29.347 132.577 30.0542C131.454 31.4606 130.423 32.4333 129.617 32.9392C128.85 33.3548 127.993 33.525 127.211 33.3738Z" stroke="#38363F"/>
<path d="M146.069 57.7725L147.785 57.8901L146.399 56.8709C145.63 56.3052 145.375 55.7653 145.346 55.2494C145.315 54.6949 145.538 54.0659 145.944 53.3217C146.204 52.8458 146.509 52.3715 146.832 51.8684C147.02 51.5763 147.215 51.2745 147.41 50.957C147.85 50.2402 148.277 49.4703 148.551 48.6601C148.91 48.6889 149.178 48.6906 149.592 48.6907C154.724 48.9657 158.654 47.7201 161.144 45.1955C163.641 42.6648 164.789 38.1969 164.993 32.7099C165.263 27.2245 164.597 23.9521 163.434 22.1092C162.846 21.1779 162.082 20.4952 161.104 20.0513C160.135 19.6112 158.98 19.4176 157.622 19.4176C154.997 19.4176 153.66 19.4176 150.978 19.2816L150.696 19.2673L150.538 19.5017C142.963 30.747 137.423 43.0797 132.634 55.6617L132.414 56.2407L133.026 56.3338C138.43 57.1555 141.071 57.4301 146.069 57.7725ZM154.369 35.8884L154.36 35.8978L154.352 35.9076C153.882 36.4366 153.111 36.6956 152.031 36.6956H152.029H152.027H152.025H152.023H152.021H152.019H152.017H152.015H152.013H152.011H152.009H152.007H152.005H152.004H152.002H152H151.998H151.996H151.994H151.992H151.99H151.988H151.986H151.984H151.982H151.981H151.979H151.977H151.975H151.973H151.971H151.969H151.967H151.965H151.964H151.962H151.96H151.958H151.956H151.954H151.952H151.951H151.949H151.947H151.945H151.943H151.941H151.939H151.938H151.936H151.934H151.932H151.93H151.928H151.927H151.925H151.923H151.921H151.919H151.918H151.916H151.914H151.912H151.91H151.909H151.907H151.905H151.903H151.901H151.9H151.898H151.896H151.894H151.892H151.891H151.889H151.887H151.885H151.884H151.882H151.88H151.878H151.877H151.875H151.873H151.871H151.87H151.868H151.866H151.864H151.863H151.861H151.859H151.857H151.856H151.854H151.852H151.85H151.849H151.847H151.845H151.843H151.842H151.84H151.838H151.837H151.835H151.833H151.831H151.83H151.828H151.826H151.825H151.823H151.821H151.82H151.818H151.816H151.814H151.813H151.811C152.676 33.5669 153.204 31.8876 154.144 29.0225H154.145H154.146H154.148H154.149H154.15H154.151H154.152H154.154H154.155H154.156H154.157H154.158H154.16H154.161H154.162H154.163H154.164H154.165H154.167H154.168H154.169H154.17H154.171H154.173H154.174H154.175H154.176H154.177H154.179H154.18H154.181H154.182H154.183H154.185H154.186H154.187H154.188H154.189H154.191H154.192H154.193H154.194H154.195H154.197H154.198H154.199H154.2H154.202H154.203H154.204H154.205H154.206H154.208H154.209H154.21H154.211H154.212H154.214H154.215H154.216H154.217H154.219H154.22H154.221H154.222H154.224H154.225H154.226H154.227H154.228H154.23H154.231H154.232H154.233H154.235H154.236H154.237H154.238H154.24H154.241H154.242H154.243H154.245H154.246H154.247H154.248H154.25H154.251H154.252H154.253H154.255H154.256H154.257H154.258H154.26H154.261H154.262H154.263H154.265H154.266H154.267H154.269H154.27H154.271H154.272H154.274H154.275H154.276H154.278H154.279H154.28H154.281H154.283H154.284H154.285H154.287H154.288H154.289H154.29H154.292H154.293H154.294H154.296H154.297H154.298H154.3H154.301H154.302H154.304H154.305H154.306H154.308H154.309H154.31H154.312H154.313H154.314H154.316H154.317H154.318H154.32H154.321H154.322H154.324H154.325H154.326H154.328H154.329H154.33H154.332H154.333H154.334H154.336H154.337H154.339H154.34H154.341H154.343H154.344H154.345H154.347H154.348H154.35H154.351H154.352H154.354H154.355H154.357H154.358H154.359H154.361H154.362H154.364H154.365H154.366H154.368H154.369H154.371H154.372H154.373H154.375H154.376H154.378H154.379H154.381H154.382H154.384H154.385H154.386H154.388H154.389H154.391H154.392H154.394H154.395H154.397H154.398H154.4H154.401H154.403H154.404H154.405H154.407H154.408H154.41H154.411H154.413H154.414H154.416H154.417H154.419H154.42H154.422H154.423H154.425H154.427H154.428H154.43H154.431H154.433H154.434H154.436H154.437H154.439C155.393 29.0895 155.749 29.3384 155.894 29.6314C155.971 29.7879 156.027 30.0926 156.003 30.6164C155.979 31.1253 155.884 31.7794 155.718 32.5877C155.383 34.2139 154.934 35.3162 154.369 35.8884Z" stroke="#38363F"/>
<path d="M177.968 48.076H178.468V47.9576C182.615 47.474 185.426 45.8761 186.702 43.2899L186.702 43.2899L186.707 43.2798C187.332 41.9377 187.514 40.1803 187.298 38.125C187.082 36.064 186.462 33.6647 185.441 31.008C183.47 25.7731 181.274 22.6816 179.298 21.0357L179.298 21.0356L179.29 21.0288C177.303 19.4468 175.16 18.797 172.618 18.9402L172.618 18.94L172.604 18.9412C170.188 19.1453 168.985 19.213 166.502 19.2811L166.002 19.2948L166.016 19.7942C166.24 28.2108 166.225 36.5911 166.21 44.9696C166.203 49.1619 166.195 53.3537 166.218 57.5494L166.22 58.0618L166.733 58.0465C170.891 57.9225 173.117 57.7421 176.647 57.4559C177.017 57.4259 177.402 57.3946 177.806 57.3622L179.025 57.2641L178.086 56.48C177.285 55.8113 176.877 55.1783 176.68 54.5698C176.482 53.9558 176.485 53.3194 176.585 52.6145C176.647 52.1769 176.737 51.7577 176.834 51.3103C176.9 51.0015 176.97 50.6794 177.035 50.3284C177.163 49.6377 177.258 48.8974 177.221 48.1097C177.44 48.076 177.624 48.076 177.961 48.076H177.968ZM175.773 36.2858H175.772C175.306 33.1025 175.037 31.4043 174.526 28.6126H174.527H174.529H174.53H174.532H174.551L174.571 28.6111C175.346 28.5507 175.839 28.7341 176.174 29.1222C176.559 29.5678 176.941 30.4809 177.346 32.1176C177.509 32.8826 177.604 33.5506 177.628 34.1093C177.652 34.6757 177.601 35.098 177.497 35.3877C177.318 35.8865 176.874 36.2227 175.997 36.2858H175.995H175.994H175.992H175.99H175.989H175.987H175.986H175.984H175.983H175.981H175.98H175.978H175.976H175.975H175.973H175.972H175.97H175.969H175.967H175.966H175.964H175.963H175.961H175.96H175.958H175.957H175.955H175.953H175.952H175.95H175.949H175.947H175.946H175.944H175.943H175.941H175.94H175.938H175.937H175.935H175.934H175.932H175.931H175.929H175.928H175.926H175.925H175.923H175.922H175.92H175.919H175.917H175.916H175.914H175.913H175.911H175.91H175.908H175.907H175.905H175.904H175.902H175.901H175.899H175.898H175.897H175.895H175.894H175.892H175.891H175.889H175.888H175.886H175.885H175.883H175.882H175.88H175.879H175.877H175.876H175.874H175.873H175.872H175.87H175.869H175.867H175.866H175.864H175.863H175.861H175.86H175.858H175.857H175.856H175.854H175.853H175.851H175.85H175.848H175.847H175.845H175.844H175.843H175.841H175.84H175.838H175.837H175.835H175.834H175.832H175.831H175.83H175.828H175.827H175.825H175.824H175.822H175.821H175.82H175.818H175.817H175.815H175.814H175.812H175.811H175.81H175.808H175.807H175.805H175.804H175.802H175.801H175.8H175.798H175.797H175.795H175.794H175.793H175.791H175.79H175.788H175.787H175.785H175.784H175.783H175.781H175.78H175.778H175.777H175.776H175.774H175.773Z" stroke="#38363F"/>
<path d="M182.106 18.9212C187.982 30.089 189.795 42.8269 191.48 55.3268V55.4299V55.9985L192.044 55.9258C194.997 55.5447 196.755 55.2935 199.047 54.9658C199.634 54.8819 200.256 54.793 200.942 54.6956L201.852 54.5666L201.249 53.8728C200.593 53.117 200.441 52.4959 200.411 51.8226C200.4 51.5588 200.407 51.297 200.416 51.0034C200.419 50.8931 200.422 50.7783 200.424 50.6573C200.43 50.363 200.43 50.0469 200.407 49.7063C204.009 49.1587 205.824 48.8824 208.938 48.3281C209.168 48.6535 209.35 48.9592 209.516 49.2566C209.58 49.3709 209.644 49.4881 209.708 49.6064C209.846 49.86 209.987 50.1187 210.138 50.3645C210.606 51.1274 211.215 51.8487 212.459 52.6418L212.625 52.7477L212.819 52.7117C218.354 51.6852 220.723 51.1365 225.044 50.0414L225.881 49.8292L225.28 49.2088C214.152 37.7226 202.75 27.1883 190.129 17.4727L189.967 17.348L189.764 17.3725C187.953 17.591 186.726 17.7252 185.279 17.8834C184.466 17.9722 183.585 18.0685 182.493 18.1916L181.766 18.2735L182.106 18.9212ZM197.718 38.0098C196.26 33.4393 195.225 30.976 193.254 27.3129C196.285 30.9622 198.128 33.2467 201.33 37.4647C200.097 37.6835 199.173 37.8128 197.718 38.0098Z" stroke="#38363F"/>
<path d="M236.629 46.7227C237.115 46.5777 237.622 46.4263 238.162 46.2658V46.3325L238.804 46.1438C240.94 45.5149 242.482 44.577 243.259 43.2838C244.055 41.9588 243.976 40.3881 243.154 38.6858C242.34 36.9979 240.788 35.103 238.507 33.0668C236.221 31.026 233.179 28.8226 229.354 26.5234L229.353 26.5226C223.261 22.8858 216.757 19.8629 209.976 17.8006C205.041 16.2928 201.252 15.7882 199.055 16.0757C198.098 16.2008 197.369 16.309 196.654 16.4152C195.771 16.5462 194.909 16.6741 193.669 16.8264L192.373 16.9858L193.445 17.7329C206.332 26.7153 216.672 36.9239 226.551 49.2548L226.754 49.5085L227.068 49.4257C231.331 48.3034 233.553 47.6403 236.629 46.7227ZM222.407 29.2712L222.407 29.2712L222.41 29.2737C224.254 30.565 225.669 31.6631 226.678 32.5515C227.705 33.4566 228.258 34.0999 228.446 34.4804C228.645 34.8839 228.618 35.1139 228.552 35.2411C228.48 35.3796 228.277 35.5637 227.768 35.6851L227.768 35.6851L227.761 35.6868L227.088 35.8575L226.676 35.9618C221.892 31.577 216.587 27.3738 211.139 23.7908C212.043 23.6717 213.149 23.864 214.53 24.5336L214.538 24.5375L214.546 24.5412C216.057 25.207 218.789 26.6905 222.407 29.2712Z" stroke="#38363F"/>
<path d="M18.8514 78.4613C24.2808 77.7572 27.6306 77.4142 34.091 77.0362L34.0309 77.0971L35.3171 77.0306C41.9804 76.686 48.7312 75.0311 54.5403 71.6361L54.5415 71.6354C60.0753 68.3802 65.3073 62.9303 69.1627 58.0619C71.4523 55.1946 73.3334 52.7729 74.7103 50.7222C76.0801 48.682 76.9883 46.9561 77.2782 45.4866L77.2783 45.4866L77.2803 45.4749C77.5405 43.9675 77.2023 42.6007 75.9511 41.5274C74.7456 40.4932 72.7418 39.7766 69.7836 39.3629C63.9889 38.5432 60.4559 38.0605 55.029 38.0605H54.8556L54.7194 38.1679C40.1292 49.6723 28.5718 62.0048 18.368 77.6928L17.7776 78.6005L18.8514 78.4613ZM60.1513 50.5432C59.9836 50.9964 59.4853 51.7199 58.5958 52.7763C57.7217 53.8143 56.5179 55.1198 55.0023 56.7246C51.9589 59.947 49.7223 62.069 48.053 62.9802C46.3697 63.8991 44.498 64.4215 42.4993 64.4215H42.4938H42.4882H42.4827H42.4772H42.4718H42.4663H42.4608H42.4554H42.4499H42.4445H42.439H42.4336H42.4282H42.4228H42.4174H42.412H42.4066H42.4013H42.3959H42.3906H42.3852H42.3799H42.3746H42.3692H42.3639H42.3586H42.3533H42.348H42.3428H42.3375H42.3322H42.327H42.3217H42.3165H42.3113H42.3061H42.3008H42.2956H42.2904H42.2853H42.2801H42.2749H42.2697H42.2646H42.2594H42.2543H42.2492H42.244H42.2389H42.2338H42.2287H42.2236H42.2185H42.2134H42.2083H42.2033H42.1982H42.1932H42.1881H42.1831H42.178H42.173H42.168H42.163H42.158H42.153H42.148H42.143H42.138H42.1331H42.1281H42.1231H42.1182H42.1132H42.1083H42.1034H42.0985H42.0935H42.0886H42.0837H42.0788H42.0739H42.069H42.0642H42.0593H42.0544H42.0496H42.0447H42.0399H42.035H42.0302H42.0254H42.0205H42.0157H42.0109H42.0061H42.0013H41.9965H41.9917H41.9869H41.9821H41.9774H41.9726H41.9678H41.9631H41.9583H41.9536H41.9488H41.9441H41.9394H41.9347H41.9299H41.9252H41.9205H41.9158H41.9111H41.9064H41.9017H41.897H41.8924H41.8877H41.883H41.8784H41.8737H41.869H41.8644H41.8598H41.8551H41.8505H41.8458H41.8412H41.8366H41.832H41.8274H41.8228H41.8182H41.8136H41.809H41.8044H41.7998H41.7952H41.7906H41.786H41.7815H41.7769H41.7723H41.7678H41.7632H41.7587H41.7541H41.7496H41.7451H41.7405H41.736H41.7315H41.7269H41.7224H41.7179H41.7134H41.7089H41.7044H41.6999H41.6954H41.6909H41.6864H41.6819H41.6774H41.6729H41.6684H41.664H41.6595H41.655H41.6505H41.6461H41.6416H41.6372H41.6327H41.6282H41.6238H41.6193H41.6149H41.6105H41.606H41.6016H41.5972H41.5927H41.5883H41.5839H41.5794H41.575H41.5706H41.5662H41.5618H41.5574H41.5529H41.5485H41.5441H41.5397H41.5353H41.5309H41.5265H41.5221H41.5177H41.5133H41.509H41.5046H41.5002H41.4958H41.4914H41.487H41.4827H41.4783H41.4739H41.4695H41.4652H41.4608H41.4564H41.452H41.4477H41.4433H41.4389H41.4346H41.4302H41.4259H41.4215H41.4171H41.4128H41.4084H41.4041H41.3997H41.3954H41.391H41.3867H41.3823H41.378H41.3736H41.3693H41.3649H41.3606H41.3562H41.3519H41.3475H41.3432H41.3388H41.3345H41.3302H41.3258H41.3215H41.3171H41.3128H41.3084H41.3041H41.2998H41.2954H41.2911H41.2867H41.2824H41.278H41.2737H41.2694H41.265H41.2607H41.2563H41.252H41.2476H41.2433H41.239H41.2346H41.2303H41.2259H41.2216H41.2172H41.2129H41.2085H41.2042H41.1998H41.1955H41.1911H41.1868H41.1824H41.1781H41.1737H41.1694H41.1658C45.8502 59.0151 50.5048 54.1265 55.7502 49.183C55.9141 49.1958 56.0655 49.2085 56.21 49.2207C56.7508 49.2662 57.1946 49.3036 57.8356 49.3044C58.9568 49.4065 59.6268 49.6037 59.9645 49.8383C60.1198 49.9462 60.1778 50.0433 60.2004 50.1226C60.2242 50.2064 60.2274 50.3375 60.1513 50.5432Z" stroke="#38363F"/>
<path d="M56.6664 76.0737L56.9709 76.3286L56.9558 76.894C63.3449 77.2349 67.2963 77.5749 72.926 78.594L73.2617 78.6548L73.4407 78.3644C73.9473 77.5426 74.319 76.9261 74.6895 76.3114L74.6897 76.3112C75.0143 75.7726 75.3381 75.2354 75.7524 74.5607C78.914 75.1723 80.4497 75.5712 83.0633 76.3491C82.9478 77.9355 82.8892 78.8373 82.8892 80.5606V80.9332L83.2463 81.0397C87.7982 82.397 89.6635 83.2074 93.4273 84.8427L93.4293 84.8435L94.0995 85.1347L94.1281 84.4046C94.5993 72.3958 95.6755 60.8634 100.421 49.7521L100.609 49.3099L100.175 49.1039C99.8939 48.9706 99.6228 48.8419 99.3602 48.7173C95.7211 46.9899 93.7204 46.0401 89.4305 44.3773L89.1629 44.2736L88.9384 44.4523C76.9871 53.9672 66.5218 64.3033 56.6664 76.0737ZM89.0588 55.0803C89.0762 55.0868 89.0935 55.0934 89.1107 55.0999C87.3659 58.9729 86.4978 61.3004 85.3287 65.7226C84.0862 65.3361 83.2492 65.0839 81.9075 64.7441C84.6051 60.6914 86.1378 58.6087 89.0588 55.0803Z" stroke="#38363F"/>
<path d="M107.194 82.1892L107.401 82.2678L107.532 82.2011C111.982 83.9299 116.095 84.0032 119.24 82.5153C122.48 80.9824 124.754 77.1046 126.112 71.8069C127.471 66.5017 127.113 62.8113 125.136 60.4361C123.218 58.1319 119.727 56.4585 115.536 55.1566C111.431 53.881 109.69 53.1397 106.401 51.7394L106.288 51.6911L105.87 51.5134L105.653 51.9116C100.023 62.2264 97.2497 73.5583 95.0249 84.9725L94.9503 85.3552L95.3032 85.5208C96.042 85.8676 96.7005 86.1778 97.3131 86.4665C99.7141 87.5978 101.41 88.3968 104.474 89.7592L105.08 90.0285L105.172 89.3721C105.611 86.2553 105.874 84.6304 106.453 81.8831C106.668 81.9786 106.893 82.0749 107.194 82.1892ZM109.444 71.2868C109.307 71.2313 109.191 71.1867 109.082 71.1452C109.881 68.3245 110.348 66.7829 111.256 64.1739C111.346 64.2063 111.445 64.2447 111.562 64.2925L111.576 64.2981L111.59 64.3029C112.766 64.7003 113.413 65.1896 113.66 65.6894C113.776 65.9258 113.842 66.274 113.811 66.7691C113.781 67.2617 113.657 67.8686 113.429 68.5965C112.963 70.0827 112.47 70.9441 111.897 71.3219C111.318 71.6365 110.54 71.7187 109.444 71.2868Z" stroke="#38363F"/>
<path d="M144.623 90.3481H145.439C152.219 90.7953 157.114 89.6357 160.152 87.3085C163.374 84.8401 164.661 80.4682 164.457 74.8738C164.253 69.2881 162.821 65.6706 160.065 63.7592C157.386 61.9009 153.428 61.0088 147.688 60.6663C142.04 60.2573 139.089 59.9852 133.042 59.0998L132.627 59.0389L132.495 59.4375C128.574 71.294 126.413 83.5537 124.459 95.8477L124.385 96.3148L124.847 96.4149C130.865 97.7172 134.994 98.3347 141.749 98.9509L142.255 98.9971L142.293 98.4901C142.548 95.0556 142.683 93.282 142.926 90.1923C143.047 90.2073 143.161 90.2231 143.275 90.2389C143.343 90.2483 143.41 90.2577 143.48 90.2669C143.812 90.3113 144.156 90.3481 144.623 90.3481ZM149.118 71.6919L149.127 71.7013L149.137 71.7102C149.63 72.1605 149.916 73.0432 149.784 74.7161C149.653 76.3649 149.205 77.3665 148.545 77.9247C147.891 78.4773 146.714 78.7598 144.943 78.6285C144.822 78.613 144.71 78.5967 144.603 78.5809C144.413 78.5531 144.234 78.527 144.034 78.5098C144.381 75.3537 144.583 73.6631 144.986 70.7265C145.273 70.7477 145.507 70.7481 145.817 70.7481C146.699 70.8152 147.412 70.9304 147.968 71.0947C148.531 71.2612 148.897 71.4678 149.118 71.6919Z" stroke="#38363F"/>
<path d="M183.948 89.526L184.987 89.4207L184.904 89.3367C190.245 88.6302 193.79 86.9457 195.745 84.4173C197.846 81.6999 198.067 77.4012 196.641 71.9652L196.641 71.9636C195.213 66.5874 193.076 63.2213 190.278 61.6203C187.583 60.0391 183.952 59.6401 179.073 60.0523L179.072 60.0523C174.292 60.4618 171.809 60.666 166.633 60.8704L166.115 60.8909L166.154 61.4077C167.096 73.9004 167.837 86.4622 168.578 99.0287L168.607 99.5215L169.1 99.4988C175.042 99.225 177.881 98.9508 183.274 98.4041L183.778 98.353L183.721 97.8501C183.501 95.9166 183.318 94.5136 183.133 93.0859C182.997 92.0367 182.859 90.9742 182.703 89.678C182.849 89.6608 182.982 89.6437 183.112 89.6268C183.136 89.6237 183.159 89.6206 183.183 89.6175C183.419 89.5864 183.649 89.5563 183.948 89.526ZM181.763 77.9453L181.705 77.9507L181.649 77.9695C181.435 78.042 181.304 78.0668 181.105 78.0753C180.628 74.8795 180.361 73.1793 179.892 70.2104C180.045 70.2017 180.189 70.2017 180.391 70.2017H180.395H180.418L180.441 70.1996C181.863 70.0685 182.793 70.276 183.326 70.6466C183.851 71.0811 184.291 71.9541 184.62 73.5585C184.944 75.135 184.79 76.2048 184.425 76.7985C184.003 77.3764 183.165 77.8161 181.763 77.9453Z" stroke="#38363F"/>
<path d="M200.238 95.6529L200.759 95.6697L200.806 96.0118C205.325 95.3963 212.414 94.3015 218.63 92.9315L219.085 92.8313L219.017 92.3709C218.999 92.2484 218.982 92.1297 218.965 92.0144C218.752 90.5501 218.617 89.6287 218.359 88.1859C222.011 87.3957 223.829 86.9832 226.924 86.1873L229.422 89.9862L229.621 90.2886L229.97 90.1941C233.692 89.188 235.847 88.5509 238.495 87.7685C239.446 87.4874 240.46 87.1876 241.634 86.8451L242.236 86.6694L241.93 86.1216C235.51 74.6106 227.396 63.7096 217.788 54.6549L217.597 54.4755L217.341 54.5296C210.891 55.8919 204.303 56.9143 197.774 57.8014L197.15 57.8862L197.375 58.4749C201.844 70.2033 201.073 82.6674 200.275 95.0749L200.238 95.0798V95.5163V95.6529ZM215.783 77.1073C214.504 72.4306 213.762 69.9748 212.267 65.8192C212.524 65.7808 212.749 65.7369 213.011 65.6804C216.285 69.6343 217.956 71.8584 220.802 76.0726C219.662 76.3336 218.75 76.5142 217.674 76.7274C217.108 76.8395 216.497 76.9607 215.783 77.1073Z" stroke="#38363F"/>
<path d="M258.682 82.8978L258.685 82.8973C261.974 82.3473 264.873 81.569 267.098 80.4893C269.316 79.4133 270.941 77.9993 271.541 76.1379C272.125 74.3254 271.963 72.1565 271.062 69.7324C270.161 67.3074 268.509 64.5955 266.06 61.665C261.164 55.7367 255.848 51.9982 251.323 50.0521C246.777 48.0972 242.615 47.8111 238.184 49.1441C237.185 49.4337 236.301 49.6927 235.47 49.9365C232.77 50.7287 230.62 51.3592 226.815 52.3495L226.136 52.5264L226.525 53.1106C233.508 63.5925 238.745 74.1424 243.111 85.9916L243.271 86.425L243.716 86.3001L243.979 86.226C249.383 84.7077 252.013 83.9688 258.682 82.8978ZM253.603 64.5791L253.603 64.5791L253.605 64.5835C254.57 66.0338 255.222 67.2614 255.582 68.2361C255.953 69.2391 255.977 69.871 255.847 70.2011L255.84 70.219L255.834 70.2373C255.587 71.0382 254.648 71.6717 252.859 72.0089C252.134 72.1219 251.721 72.1902 251.132 72.329C248.44 66.707 246.764 63.8267 243.467 58.9079C243.776 58.8396 244.078 58.7648 244.517 58.6436C246.294 58.1942 247.692 58.3981 248.829 59.1243C249.966 59.8939 251.672 61.6088 253.603 64.5791Z" stroke="#38363F"/>
<path d="M15.6235 120.529L15.6229 120.52C22.4541 119.552 29.3778 117.418 35.1663 113.483C40.2512 110.069 44.8854 103.63 47.203 98.171L47.203 98.1709C48.5582 94.9767 49.4365 92.1971 49.7396 89.8444C50.0424 87.4932 49.7772 85.5151 48.7804 83.9788C47.7821 82.406 46.0213 81.2944 43.6535 80.6261C41.283 79.9571 38.2589 79.7184 34.6559 79.9252L34.6554 79.9252C27.6376 80.3357 24.3262 80.6782 18.726 81.3622L18.4757 81.3928L18.3515 81.6123C10.9853 94.6293 5.98326 107.444 2.53695 121.967L2.35848 122.72L3.11762 122.574L3.1956 122.559C5.66297 122.086 8.49999 121.542 15.6235 120.529ZM17.0128 108.013C19.2726 102.447 22.0551 96.8935 25.0809 91.6947C25.4629 91.6664 25.7697 91.6381 26.0733 91.6101L26.0742 91.6101C26.4442 91.576 26.8095 91.5423 27.3082 91.5086L27.3134 91.5082C28.6011 91.4078 29.5712 91.4805 30.2148 91.683C30.8559 91.8847 31.0564 92.1677 31.0896 92.4368C31.1407 92.8514 30.9988 93.5856 30.5777 94.7297C30.1709 95.8349 29.5341 97.2462 28.6768 98.9874L28.6467 98.9802C26.8925 102.468 25.3877 104.757 23.9433 105.839C22.4826 106.933 20.6221 107.592 18.6024 107.858C17.9372 107.903 17.4989 107.949 17.0128 108.013Z" stroke="#38363F"/>
<path d="M40.0549 117.583L40.5517 117.976L40.5606 118.28C47.4868 118.075 54.6065 118.144 61.5194 118.756L61.8547 118.786L62.0084 118.486C62.4455 117.634 62.7817 116.987 63.1184 116.338L63.1188 116.337L63.1191 116.337C63.4145 115.768 63.7102 115.198 64.0743 114.49C68.7281 114.998 70.9365 115.334 74.5931 116.02C74.5933 116.021 74.5935 116.022 74.5936 116.024C74.8299 117.643 74.9694 118.598 75.2855 120.329L75.3463 120.661L75.678 120.729C81.7148 121.953 84.1139 122.697 88.6017 124.394L89.3739 124.686L89.275 123.867C87.7282 111.049 87.057 98.6513 87.863 85.7137L87.886 85.3439L87.5389 85.2142C81.2523 82.8662 74.9056 81.8272 68.4256 80.7664C68.2536 80.7383 68.0814 80.7101 67.9092 80.6819L67.6332 80.6367L67.4502 80.8481C57.3318 92.5422 48.289 104.446 40.0549 117.583ZM69.0502 103.86C71.2344 99.3837 72.5013 96.955 74.8513 92.6866C75.0837 92.7365 75.2721 92.7796 75.4905 92.8297C74.8869 97.3619 74.6832 99.9532 74.5519 104.75C72.5911 104.381 71.2865 104.179 69.0502 103.86Z" stroke="#38363F"/>
<path d="M102.565 122.324L102.671 122.378H102.791H102.817C107.486 124.483 111.655 124.868 114.653 123.493C117.739 122.078 119.587 118.211 120.062 112.701L120.063 112.701C120.541 107.089 119.455 103.041 116.975 100.239L116.975 100.239L116.97 100.234C114.473 97.4919 110.691 95.2723 106.222 93.3502C104.006 92.3972 102.428 91.6655 100.881 90.9409C100.722 90.8666 100.564 90.7924 100.405 90.718C99.0149 90.0662 97.597 89.4015 95.7173 88.5716L95.1694 88.3298L95.0292 88.912C92.1894 100.702 91.0422 112.756 90.368 124.786L90.3478 125.146L90.6831 125.279C94.3456 126.73 96.2447 127.633 99.2361 129.056C99.751 129.301 100.298 129.561 100.893 129.842L101.591 130.172L101.606 129.4C101.668 126.386 101.73 124.763 101.897 122.021C101.905 122.024 101.913 122.027 101.92 122.03L101.922 122.031C102.123 122.116 102.312 122.196 102.565 122.324ZM102.781 110.878C103.075 107.852 103.271 106.119 103.661 103.308C103.711 103.329 103.762 103.349 103.814 103.369C103.857 103.387 103.9 103.404 103.946 103.422C105.16 103.941 105.932 104.564 106.333 105.193C106.665 105.821 106.867 106.929 106.673 108.5C106.472 110.127 106.083 110.966 105.647 111.31C105.28 111.599 104.588 111.646 103.324 111.106L103.306 111.098L103.288 111.092C103.112 111.033 102.98 110.973 102.846 110.909C102.825 110.899 102.803 110.889 102.781 110.878Z" stroke="#38363F"/>
<path d="M141.05 135.689C141.079 134.595 141.109 133.5 141.138 132.116C141.342 132.133 141.529 132.151 141.718 132.169L141.79 132.176C142.152 132.21 142.526 132.244 143.035 132.279C151.368 133.034 157.223 131.877 160.859 129.537C164.566 127.153 166.211 122.847 166.006 117.151C165.868 111.447 164.005 107.699 160.503 105.67L160.499 105.668C157.024 103.694 151.733 102.735 144.125 102.121L144.122 102.121C137.81 101.644 131.367 100.759 125.127 99.3992L124.584 99.2807L124.524 99.8335C123.175 112.207 122.299 124.51 121.692 136.946L121.672 137.36L122.075 137.457C128.364 138.965 132.9 139.72 140.397 140.473L140.936 140.527L140.947 139.985C140.981 138.28 141.014 137.018 141.048 135.763L141.05 135.689ZM142.651 120.697C142.473 120.679 142.318 120.66 142.173 120.642C141.972 120.618 141.788 120.595 141.581 120.579C141.752 117.469 141.821 115.713 141.937 112.675C142.261 112.715 142.569 112.747 142.983 112.749C145.169 112.952 146.53 113.351 147.292 113.882C147.906 114.354 148.299 115.308 148.3 116.951C148.234 118.58 147.789 119.554 147.025 120.107C146.241 120.675 144.857 120.9 142.651 120.697Z" stroke="#38363F"/>
<path d="M187.169 131.173V131.249L187.726 131.184C190.991 130.805 193.296 130.233 195.314 129.39C197.326 128.55 199.03 127.448 201.086 126.047C203.229 124.587 204.568 122.752 205.201 120.556C205.83 118.374 205.749 115.876 205.133 113.096C203.901 107.546 201.412 104.04 198.269 102.446C195.174 100.878 191.081 100.48 184.986 101.166C178.933 101.848 175.777 102.12 169.051 102.461L168.547 102.487L168.577 102.99C169.318 115.481 169.789 128.041 170.126 140.603L170.14 141.121L170.657 141.089C177.199 140.679 180.307 140.405 186.177 139.721L186.637 139.667L186.619 139.204L186.619 139.201C186.491 135.96 186.424 134.253 186.244 131.277C186.436 131.257 186.607 131.238 186.775 131.218C186.801 131.215 186.828 131.212 186.855 131.209C186.959 131.197 187.062 131.185 187.169 131.173ZM186.263 119.742L186.259 119.743C186.065 119.767 185.921 119.79 185.798 119.809C185.666 119.83 185.558 119.847 185.438 119.859C185.203 116.652 185.067 114.891 184.777 111.858C185.042 111.818 185.226 111.792 185.513 111.792H185.541L185.569 111.789C187.359 111.588 188.414 111.743 189.001 112.114C189.556 112.531 189.938 113.364 190.136 115.039C190.33 116.678 190.057 117.747 189.505 118.419C188.954 119.089 187.968 119.543 186.263 119.742Z" stroke="#38363F"/>
<path d="M207.311 136.219L207.83 136.268L207.894 136.644C216.327 135.208 219.709 134.454 225.65 132.948L225.987 132.863L226.024 132.518C226.125 131.598 226.209 130.901 226.293 130.201L226.293 130.2C226.367 129.591 226.44 128.98 226.525 128.223C229.534 127.493 231.261 126.998 233.513 126.351C233.932 126.231 234.37 126.106 234.837 125.973C235.042 126.581 235.22 127.08 235.396 127.576L235.397 127.577C235.616 128.192 235.833 128.801 236.1 129.614L236.251 130.074L236.716 129.938C237.337 129.756 237.915 129.586 238.461 129.425C242.417 128.261 244.671 127.598 249.16 126.46L249.687 126.326L249.51 125.813C245.46 114.041 240.665 103.087 234.655 92.2019L234.46 91.849L234.074 91.9646C227.023 94.0751 219.9 95.6423 212.693 97.1444L212.32 97.2222L212.296 97.6029C211.498 110.483 209.779 123.032 207.397 135.714L207.311 135.729V136.151V136.219ZM227.053 116.932C227.163 112.111 227.101 109.521 226.92 104.888C227.161 104.812 227.354 104.76 227.592 104.702C229.428 108.929 230.357 111.231 231.825 115.659C231.356 115.786 230.934 115.902 230.532 116.012C229.409 116.319 228.444 116.583 227.053 116.932Z" stroke="#38363F"/>
<path d="M270.563 123.059L271.64 122.978L271.556 122.893C274.527 122.588 277.325 122.03 279.758 121.189C282.473 120.252 284.764 118.951 286.323 117.228C289.461 113.757 290.027 108.547 287.497 101.962L287.496 101.96C284.962 95.4333 280.64 90.8351 275.889 88.1826C271.117 85.5185 264.596 84.698 257.914 85.8039L257.914 85.8039L257.913 85.8042C251.736 86.8478 249.1 87.5836 244.217 88.9468C243.966 89.0168 243.709 89.0885 243.446 89.1619L242.938 89.3034L243.106 89.803C247.068 101.581 249.487 113.088 250.965 125.42L251.032 125.973L251.574 125.848C257.742 124.42 264.251 123.536 270.563 123.059ZM266.972 111.478L266.962 111.479L266.951 111.48C266.142 111.598 265.585 111.664 264.707 111.768C263.195 105.741 262.188 102.53 260.025 96.9183C260.571 96.818 260.998 96.7568 261.556 96.6767C261.667 96.6609 261.783 96.6443 261.906 96.6265C264.34 96.2933 266.128 96.6467 267.185 97.4801C268.265 98.3321 269.431 100.3 270.497 103.519V103.587L270.522 103.663C271.052 105.274 271.308 106.609 271.348 107.649C271.388 108.702 271.205 109.387 270.93 109.768C270.246 110.691 268.938 111.279 266.972 111.478Z" stroke="#38363F"/>
<path d="M14.2059 161.829C7.20002 162.854 9.42304 162.307 1.54143 164.015C0.463608 150.971 1.00252 138.815 3.09081 125.976C5.51592 125.498 8.14312 124.951 15.0143 123.995C21.9528 123.039 28.6218 123.859 32.4616 126.454C36.3013 129.049 38.0528 133.625 37.716 140.181C37.4465 146.737 35.3582 151.722 31.4511 155.205C27.544 158.688 21.0097 160.942 14.2733 161.898L14.2059 161.829ZM18.9214 142.298C19.0561 138.883 18.7866 136.629 18.0456 135.605C17.3046 134.581 15.4858 134.239 12.926 134.581C11.9829 134.717 11.5113 134.785 10.5682 134.922C9.96195 141.478 9.82722 144.961 10.0293 151.654C10.905 151.517 11.3766 151.449 12.3197 151.312C14.3406 151.039 16.0247 150.288 17.1699 149.195C18.2477 148.103 18.7866 145.781 18.9214 142.298Z" fill="#38363F"/>
<path d="M38.9297 159.508C42.4326 146.395 47.6197 133.693 53.9519 121.742C63.046 122.288 71.9381 122.971 80.8302 125.293C82.5816 138.747 85.1415 152.2 88.3076 165.381C83.7268 163.673 81.2344 162.922 74.9695 161.693C74.3632 159.917 74.0264 158.961 73.4201 157.186C69.1762 156.434 66.8858 156.093 61.4293 155.683C60.9578 157.39 60.6883 158.21 60.1494 159.849C53.0762 159.508 46.0029 159.234 38.9297 159.576V159.508ZM67.4247 132.942C65.8753 137.995 65.1343 140.59 63.8544 145.849C67.1553 146.19 68.7046 146.395 71.5339 146.873C70.5235 141.342 70.0519 138.61 69.3783 133.215C68.6373 133.078 68.2331 133.078 67.4921 132.942H67.4247Z" fill="#38363F"/>
<path d="M101.914 163.537C101.375 163.264 101.105 163.127 100.499 162.922C100.499 166.132 100.634 167.703 100.768 170.844C96.6591 168.932 94.7729 167.976 90.3943 166.2C89.9227 153.634 90.0575 141.205 90.8658 128.639C95.716 130.62 97.8043 131.712 102.452 133.829C107.168 135.946 111.075 138.473 113.635 141.41C116.262 144.346 117.677 148.512 117.609 154.249C117.609 159.985 115.993 163.605 113.298 164.834C110.604 166.132 106.629 165.654 101.914 163.537ZM100.432 152.473C100.836 152.678 100.97 152.746 101.375 152.883C102.655 153.498 103.598 153.498 104.204 153.02C104.81 152.542 105.08 151.449 105.147 149.742C105.147 148.034 104.945 146.737 104.406 145.917C103.867 145.098 102.924 144.346 101.577 143.732C101.173 143.527 101.038 143.459 100.634 143.322C100.499 146.942 100.499 148.785 100.432 152.473Z" fill="#38363F"/>
<path d="M142.803 173.849C141.793 173.781 141.321 173.713 140.243 173.576C140.243 176.786 140.243 178.357 140.243 181.566C132.699 180.747 128.118 179.996 121.853 178.493C121.718 165.927 121.853 153.362 122.055 140.796C128.792 142.435 135.932 143.527 142.803 144.074C151.291 144.825 157.085 145.781 160.722 147.762C164.36 149.742 166.179 153.498 166.246 159.166C166.246 164.903 164.562 169.001 160.857 171.186C157.219 173.371 151.359 174.532 142.803 173.781V173.849ZM140.311 163.127C140.984 163.196 141.321 163.264 141.995 163.264C144.353 163.469 145.969 163.264 146.98 162.581C147.99 161.898 148.462 160.737 148.462 158.961C148.462 157.254 147.99 156.025 147.047 155.41C146.104 154.727 144.487 154.318 142.062 154.113C141.389 154.113 141.052 154.044 140.378 153.976C140.378 157.596 140.378 159.44 140.378 163.127H140.311Z" fill="#38363F"/>
<path d="M188.612 172.62C187.804 172.688 187.467 172.756 186.659 172.824C186.659 176.034 186.591 177.605 186.457 180.815C180.596 181.498 177.43 181.839 170.895 182.181C171.03 169.615 170.963 157.049 170.693 144.483C178.103 144.073 181.606 143.663 188.073 142.912C194.675 142.093 196.763 142.776 201.883 144.073C207.003 145.371 209.36 148.785 209.562 154.454C209.765 160.122 207.676 164.561 202.691 167.429C197.639 170.298 195.281 171.732 188.68 172.551L188.612 172.62ZM186.659 162.376C187.198 162.376 187.467 162.307 188.006 162.239C189.825 162.034 191.105 161.488 191.846 160.668C192.587 159.849 192.924 158.551 192.924 156.844C192.924 155.137 192.519 153.976 191.778 153.498C191.037 153.02 189.757 152.883 187.871 153.088C187.332 153.088 187.063 153.156 186.524 153.224C186.659 156.844 186.659 158.688 186.659 162.376Z" fill="#38363F"/>
<path d="M208.619 177.673C213.402 164.629 217.376 151.381 219.936 137.722C227.01 136.015 234.015 134.171 240.954 132.054C244.861 143.732 247.758 155.273 249.846 167.361C244.592 168.59 242.369 169.342 237.249 170.844C236.979 169.273 236.777 168.454 236.508 166.883C233.14 167.907 231.388 168.385 227.481 169.41C227.01 171.254 226.74 172.142 226.201 173.985C220.273 175.488 216.972 176.307 208.619 177.673ZM231.523 145.029C230.917 150.493 230.512 153.293 229.569 158.893C232.062 158.21 233.207 157.937 235.43 157.254C234.622 152.132 234.15 149.605 233.005 144.62C232.399 144.756 232.129 144.893 231.523 145.029Z" fill="#38363F"/>
<path d="M271.604 164.084C265.204 164.493 258.602 165.381 252.338 166.815C253.146 154.113 252.877 141.888 251.395 129.254C257.794 127.82 263.251 127.001 269.852 126.454C276.589 125.908 283.123 127.206 287.434 130.142C291.813 133.079 294.71 137.859 294.979 144.347C295.249 150.903 292.891 155.684 288.849 158.757C284.807 161.898 278.408 163.469 271.536 163.947L271.604 164.084ZM277.464 145.03C277.33 141.615 276.791 139.362 275.848 138.269C274.972 137.176 273.086 136.698 270.593 136.971C269.65 137.04 269.111 137.108 267.831 137.245C268.438 143.801 268.572 147.147 268.438 153.771C269.718 153.635 270.054 153.635 271.065 153.567C273.086 153.43 274.77 152.815 275.915 151.791C276.993 150.767 277.532 148.513 277.464 145.098V145.03Z" fill="#38363F"/>
<path d="M27.2516 202.415L27.7058 202.373V202.306C31.1078 201.989 34.0783 201.43 36.5089 200.57C39.0452 199.672 41.0316 198.432 42.291 196.754C44.7933 193.42 45.0128 188.576 43.0431 182.103C41.0644 175.601 37.6999 170.694 32.7055 167.881L32.7041 167.881C27.3291 164.877 19.3968 164.122 13.5164 165.229C11.7301 165.485 10.5774 165.633 9.69861 165.746C7.30735 166.053 6.94408 166.099 1.36323 167.351L0.909829 167.453L0.978079 167.912C2.87031 180.656 6.04731 192.099 10.9123 204.018L11.0606 204.382L11.4487 204.324C16.4948 203.574 19.8534 203.097 27.2516 202.415ZM21.0791 177.841L21.0844 177.846L21.0898 177.85C21.6246 178.302 22.1614 179.04 22.7218 180.101C23.2451 181.092 23.7739 182.335 24.3356 183.832L24.2688 183.9L24.3791 184.198C24.9793 185.821 25.3356 187.129 25.4635 188.142C25.5923 189.163 25.4781 189.798 25.2444 190.16C24.6302 191.001 23.3361 191.59 21.2304 191.79L21.2205 191.791L21.2107 191.792C20.7337 191.857 20.3803 191.89 20.0305 191.923L19.993 191.927C19.7324 191.951 19.4718 191.976 19.1668 192.014C16.7935 186.293 15.7187 183.118 13.9713 177.198L13.9752 177.197L13.9798 177.196L13.9843 177.196L13.9889 177.195L13.9934 177.194L13.998 177.194L14.0025 177.193L14.007 177.192L14.0115 177.192L14.016 177.191L14.0206 177.19L14.0251 177.19L14.0296 177.189L14.0341 177.188L14.0385 177.188L14.043 177.187L14.0475 177.187L14.052 177.186L14.0564 177.185L14.0609 177.185L14.0653 177.184L14.0698 177.183L14.0742 177.183L14.0787 177.182L14.0831 177.181L14.0876 177.181L14.092 177.18L14.0964 177.179L14.1008 177.179L14.1052 177.178L14.1096 177.178L14.114 177.177L14.1184 177.176L14.1228 177.176L14.1272 177.175L14.1316 177.174L14.136 177.174L14.1403 177.173L14.1447 177.172L14.1491 177.172L14.1534 177.171L14.1578 177.171L14.1622 177.17L14.1665 177.169L14.1709 177.169L14.1752 177.168L14.1795 177.167L14.1839 177.167L14.1882 177.166L14.1925 177.166L14.1968 177.165L14.2012 177.164L14.2055 177.164L14.2098 177.163L14.2141 177.162L14.2184 177.162L14.2227 177.161L14.227 177.161L14.2313 177.16L14.2356 177.159L14.2398 177.159L14.2441 177.158L14.2484 177.157L14.2527 177.157L14.2569 177.156L14.2612 177.156L14.2655 177.155L14.2697 177.154L14.274 177.154L14.2783 177.153L14.2825 177.152L14.2868 177.152L14.291 177.151L14.2952 177.151L14.2995 177.15L14.3037 177.149L14.308 177.149L14.3122 177.148L14.3164 177.148L14.3206 177.147L14.3249 177.146L14.3291 177.146L14.3333 177.145L14.3375 177.145L14.3417 177.144L14.346 177.143L14.3502 177.143L14.3544 177.142L14.3586 177.141L14.3628 177.141L14.367 177.14L14.3712 177.14L14.3754 177.139L14.3796 177.138L14.3838 177.138L14.3879 177.137L14.3921 177.137L14.3963 177.136L14.4005 177.135L14.4047 177.135L14.4089 177.134L14.4131 177.134L14.4172 177.133L14.4214 177.132L14.4256 177.132L14.4298 177.131L14.4339 177.131L14.4381 177.13L14.4423 177.129L14.4464 177.129L14.4506 177.128L14.4548 177.128L14.4589 177.127L14.4631 177.126L14.4672 177.126L14.4714 177.125L14.4756 177.125L14.4797 177.124L14.4839 177.123L14.488 177.123L14.4922 177.122L14.4963 177.122L14.5005 177.121L14.5046 177.12L14.5088 177.12L14.5129 177.119L14.5171 177.118L14.5212 177.118L14.5254 177.117L14.5295 177.117L14.5337 177.116L14.5378 177.115L14.542 177.115L14.5461 177.114L14.5503 177.114L14.5544 177.113L14.5586 177.112L14.5627 177.112L14.5668 177.111L14.571 177.111L14.5751 177.11L14.5793 177.109L14.5834 177.109L14.5876 177.108L14.5917 177.108L14.5959 177.107L14.6 177.106L14.6041 177.106L14.6083 177.105L14.6124 177.105L14.6166 177.104L14.6207 177.103L14.6249 177.103L14.629 177.102L14.6332 177.102L14.6373 177.101L14.6415 177.1L14.6456 177.1L14.6498 177.099L14.6539 177.099L14.6581 177.098L14.6622 177.097L14.6664 177.097L14.6705 177.096L14.6747 177.096L14.6788 177.095L14.683 177.094L14.6872 177.094L14.6913 177.093L14.6955 177.093L14.6996 177.092L14.7038 177.091L14.708 177.091L14.7121 177.09L14.7163 177.09L14.7205 177.089L14.7246 177.088L14.7288 177.088L14.733 177.087L14.7372 177.087L14.7413 177.086L14.7455 177.085L14.7497 177.085L14.7539 177.084L14.758 177.084L14.7622 177.083L14.7664 177.082L14.7706 177.082L14.7748 177.081L14.779 177.081L14.7832 177.08L14.7874 177.079L14.7916 177.079L14.7958 177.078L14.8 177.078L14.8042 177.077L14.8084 177.076L14.8126 177.076L14.8168 177.075L14.821 177.074L14.8252 177.074L14.8295 177.073L14.8337 177.073L14.8379 177.072L14.8421 177.071L14.8464 177.071L14.8506 177.07L14.8548 177.07L14.8591 177.069L14.8633 177.068L14.8676 177.068L14.8718 177.067L14.8761 177.067L14.8803 177.066L14.8846 177.065L14.8888 177.065L14.8931 177.064L14.8973 177.063L14.9016 177.063L14.9059 177.062L14.9102 177.062L14.9144 177.061L14.9187 177.06L14.923 177.06L14.9273 177.059L14.9316 177.058L14.9359 177.058L14.9402 177.057L14.9445 177.057L14.9488 177.056L14.9531 177.055L14.9574 177.055L14.9617 177.054L14.966 177.053L14.9704 177.053L14.9747 177.052L14.979 177.052L14.9834 177.051L14.9877 177.05L14.9921 177.05L14.9964 177.049L15.0008 177.048L15.0051 177.048L15.0095 177.047L15.0138 177.047L15.0182 177.046L15.0226 177.045L15.027 177.045L15.0313 177.044L15.0357 177.043L15.0401 177.043L15.0445 177.042L15.0489 177.041L15.0533 177.041L15.0577 177.04L15.0622 177.04L15.0666 177.039L15.071 177.038L15.0754 177.038L15.0799 177.037L15.0843 177.036L15.0888 177.036L15.0932 177.035L15.0977 177.034L15.1021 177.034L15.1066 177.033L15.1111 177.032L15.1155 177.032L15.12 177.031L15.1245 177.031L15.129 177.03L15.1335 177.029L15.138 177.029L15.1425 177.028L15.147 177.027L15.1515 177.027L15.1561 177.026L15.1606 177.025L15.1651 177.025L15.1697 177.024L15.1742 177.023L15.1788 177.023L15.1833 177.022L15.1879 177.021L15.1925 177.021L15.1971 177.02L15.2016 177.019L15.2062 177.019L15.2108 177.018L15.2154 177.017L15.22 177.017L15.2247 177.016L15.2293 177.015L15.2339 177.015L15.2386 177.014L15.2432 177.013L15.2478 177.013L15.2525 177.012L15.2572 177.011L15.2618 177.011L15.2665 177.01L15.2712 177.009L15.2759 177.009L15.2806 177.008L15.2853 177.007L15.29 177.007L15.2947 177.006L15.2994 177.005L15.3041 177.005L15.3089 177.004L15.3136 177.003L15.3184 177.002L15.3231 177.002L15.3279 177.001L15.3327 177L15.3374 177L15.3422 176.999L15.347 176.998L15.3518 176.998L15.3566 176.997L15.3614 176.996L15.3663 176.996L15.3711 176.995L15.3759 176.994L15.3808 176.993L15.3856 176.993L15.3905 176.992L15.3954 176.991L15.4002 176.991L15.4051 176.99L15.41 176.989L15.4149 176.988L15.4198 176.988L15.4248 176.987L15.4297 176.986L15.4346 176.986L15.4396 176.985L15.4445 176.984L15.4495 176.983L15.4544 176.983L15.4594 176.982L15.4644 176.981L15.4694 176.981L15.4744 176.98L15.4794 176.979L15.4844 176.978L15.4894 176.978L15.4945 176.977L15.4995 176.976L15.5046 176.975L15.5096 176.975L15.5147 176.974L15.5198 176.973L15.5249 176.973L15.53 176.972L15.5351 176.971L15.5402 176.97L15.5453 176.97L15.5504 176.969L15.5556 176.968L15.5607 176.967L15.5659 176.967L15.5711 176.966L15.5762 176.965L15.5814 176.964L15.5866 176.964L15.5918 176.963L15.597 176.962L15.6023 176.961L15.6075 176.961L15.6127 176.96L15.618 176.959L15.6233 176.958L15.6285 176.958L15.6338 176.957L15.6391 176.956L15.6444 176.955L15.6497 176.954L15.6551 176.954L15.6604 176.953L15.6657 176.952L15.6711 176.951L15.6765 176.951L15.6818 176.95L15.6872 176.949L15.6926 176.948L15.698 176.947L15.7034 176.947L15.7088 176.946L15.7143 176.945L15.7197 176.944L15.7252 176.944L15.7307 176.943L15.7361 176.942L15.7416 176.941L15.7471 176.94L15.7526 176.94L15.7563 176.939C18.2044 176.604 20.1019 176.967 21.0791 177.841Z" stroke="#38363F"/>
<path d="M68.1248 198.672V198.666C72.1314 199.218 74.0611 199.559 77.3731 200.301C77.526 200.649 77.6642 200.963 77.7936 201.256C78.2932 202.39 78.6598 203.222 79.2215 204.568L79.3185 204.8L79.5631 204.861C84.7879 206.151 86.9201 206.962 90.9469 208.595L91.9016 208.982L91.6151 207.992C87.6428 194.273 84.0068 180.485 80.5724 166.626L80.4999 166.333L80.2074 166.261C71.0631 163.995 61.8603 163.31 52.4933 162.832L52.0557 162.81L51.9761 163.241C49.6118 176.047 48.7323 188.041 49.6112 201.063L50.0402 201.034L50.0377 201.529C56.8901 201.597 60.9132 201.869 67.5638 202.686L68.1248 202.755V202.19V202.18V202.171V202.161V202.152V202.142V202.133V202.123V202.114V202.104V202.095V202.086V202.076V202.067V202.057V202.048V202.039V202.029V202.02V202.011V202.002V201.992V201.983V201.974V201.965V201.956V201.947V201.937V201.928V201.919V201.91V201.901V201.892V201.883V201.874V201.865V201.856V201.847V201.838V201.829V201.82V201.811V201.802V201.793V201.785V201.776V201.767V201.758V201.749V201.741V201.732V201.723V201.714V201.706V201.697V201.688V201.68V201.671V201.662V201.654V201.645V201.636V201.628V201.619V201.611V201.602V201.594V201.585V201.577V201.568V201.56V201.551V201.543V201.534V201.526V201.517V201.509V201.501V201.492V201.484V201.476V201.467V201.459V201.451V201.442V201.434V201.426V201.418V201.409V201.401V201.393V201.385V201.376V201.368V201.36V201.352V201.344V201.336V201.327V201.319V201.311V201.303V201.295V201.287V201.279V201.271V201.263V201.255V201.247V201.239V201.231V201.223V201.215V201.207V201.199V201.191V201.183V201.175V201.167V201.159V201.152V201.144V201.136V201.128V201.12V201.112V201.104V201.097V201.089V201.081V201.073V201.065V201.058V201.05V201.042V201.034V201.027V201.019V201.011V201.004V200.996V200.988V200.98V200.973V200.965V200.958V200.95V200.942V200.935V200.927V200.919V200.912V200.904V200.897V200.889V200.881V200.874V200.866V200.859V200.851V200.844V200.836V200.828V200.821V200.813V200.806V200.798V200.791V200.783V200.776V200.768V200.761V200.754V200.746V200.739V200.731V200.724V200.716V200.709V200.701V200.694V200.687V200.679V200.672V200.664V200.657V200.65V200.642V200.635V200.628V200.62V200.613V200.605V200.598V200.591V200.583V200.576V200.569V200.561V200.554V200.547V200.539V200.532V200.525V200.518V200.51V200.503V200.496V200.488V200.481V200.474V200.467V200.459V200.452V200.445V200.437V200.43V200.423V200.416V200.408V200.401V200.394V200.387V200.379V200.372V200.365V200.358V200.35V200.343V200.336V200.329V200.322V200.314V200.307V200.3V200.293V200.285V200.278V200.271V200.264V200.257V200.249V200.242V200.235V200.228V200.221V200.213V200.206V200.199V200.192V200.185V200.177V200.17V200.163V200.156V200.148V200.141V200.134V200.127V200.12V200.112V200.105V200.098V200.091V200.084V200.076V200.069V200.062V200.055V200.048V200.04V200.033V200.026V200.019V200.012V200.004V199.997V199.99V199.983V199.975V199.968V199.961V199.954V199.947V199.939V199.932V199.925V199.918V199.91V199.903V199.896V199.889V199.881V199.874V199.867V199.86V199.852V199.845V199.838V199.831V199.823V199.816V199.809V199.801V199.794V199.787V199.78V199.772V199.765V199.758V199.75V199.743V199.736V199.728V199.721V199.714V199.706V199.699V199.692V199.684V199.677V199.67V199.662V199.655V199.648V199.64V199.633V199.626V199.618V199.611V199.603V199.596V199.589V199.581V199.574V199.566V199.559V199.551V199.544V199.536V199.529V199.522V199.514V199.507V199.499V199.492V199.484V199.477V199.469V199.462V199.454V199.447V199.439V199.431V199.424V199.416V199.409V199.401V199.394V199.386V199.378V199.371V199.363V199.356V199.348V199.34V199.333V199.325V199.317V199.31V199.302V199.294V199.287V199.279V199.271V199.264V199.256V199.248V199.24V199.233V199.225V199.217V199.209V199.202V199.194V199.186V199.178V199.17V199.162V199.155V199.147V199.139V199.131V199.123V199.115V199.107V199.099V199.091V199.084V199.076V199.068V199.06V199.052V199.044V199.036V199.028V199.02V199.012V199.004V198.996V198.987V198.979V198.971V198.963V198.955V198.947V198.939V198.931V198.923V198.914V198.906V198.898V198.89V198.882V198.873V198.865V198.857V198.849V198.84V198.832V198.824V198.815V198.807V198.799V198.79V198.782V198.774V198.765V198.757V198.748V198.74V198.731V198.723V198.715V198.706V198.698V198.689V198.68V198.672ZM73.768 188.913C71.8139 188.558 70.4897 188.357 68.1364 188.029C68.2632 183.292 68.3984 180.714 68.8228 175.799C68.9437 175.815 69.0552 175.829 69.1632 175.842L69.2058 175.847C69.397 175.871 69.5797 175.894 69.7927 175.928C71.3402 181.193 72.2087 183.984 73.768 188.913Z" stroke="#38363F"/>
<path d="M103.1 206.529L103.114 206.536L103.128 206.542C107.744 208.538 111.766 209.024 114.533 207.622C117.374 206.181 118.782 202.412 118.579 196.576C118.442 190.683 116.73 186.055 113.942 182.875L113.942 182.875L113.938 182.871C111.114 179.729 107.074 177.099 102.325 174.898C101.386 174.456 100.55 174.059 99.7725 173.689C96.7143 172.235 94.5662 171.213 90.5772 169.628L89.8732 169.348L89.8927 170.106C90.2299 183.164 91.1066 196.017 92.5904 209.008L92.6231 209.294L92.8869 209.409C95.2788 210.455 96.8542 211.189 98.6175 212.011C99.7335 212.531 100.925 213.086 102.446 213.777L103.243 214.14L103.15 213.269C102.844 210.418 102.706 208.923 102.532 206.267C102.706 206.341 102.878 206.416 103.1 206.529ZM102.512 195.038L102.494 195.03L102.476 195.024C102.3 194.965 102.169 194.905 102.035 194.841C102.01 194.83 101.984 194.817 101.957 194.804C101.925 194.789 101.891 194.772 101.856 194.755C101.681 191.53 101.61 189.656 101.497 186.449C101.564 186.478 101.638 186.507 101.722 186.537C102.969 187.139 103.857 187.766 104.314 188.518L104.318 188.526L104.323 188.533C104.793 189.248 105.184 190.509 105.184 192.22V192.229L105.185 192.239C105.218 193.109 105.183 193.8 105.084 194.32C104.982 194.85 104.826 195.13 104.679 195.26C104.533 195.39 104.321 195.471 103.97 195.451C103.607 195.43 103.129 195.301 102.512 195.038Z" stroke="#38363F"/>
<path d="M140.878 216.118V216.114C141.129 216.135 141.35 216.155 141.569 216.176L141.642 216.183C141.852 216.203 142.064 216.223 142.303 216.243V216.308L142.761 216.347C150.89 217.034 156.671 216.014 160.37 213.82C164.136 211.587 166.135 207.503 166.341 201.593C166.546 195.694 164.903 191.511 161.111 189.263C157.431 187.08 151.46 185.984 142.918 185.234C135.846 184.483 128.873 183.666 122.04 181.968L121.41 181.812L121.42 182.462C121.622 195.099 121.959 207.806 122.498 220.446L122.515 220.828L122.888 220.912C128.972 222.283 133.235 222.969 140.325 223.722L140.878 223.78V223.224V223.207V223.189V223.172V223.154V223.137V223.119V223.102V223.085V223.067V223.05V223.033V223.015V222.998V222.981V222.964V222.947V222.93V222.913V222.896V222.879V222.862V222.845V222.828V222.811V222.794V222.777V222.76V222.744V222.727V222.71V222.694V222.677V222.66V222.644V222.627V222.611V222.594V222.578V222.561V222.545V222.529V222.512V222.496V222.48V222.463V222.447V222.431V222.415V222.398V222.382V222.366V222.35V222.334V222.318V222.302V222.286V222.27V222.254V222.238V222.222V222.206V222.191V222.175V222.159V222.143V222.128V222.112V222.096V222.08V222.065V222.049V222.034V222.018V222.002V221.987V221.971V221.956V221.94V221.925V221.91V221.894V221.879V221.864V221.848V221.833V221.818V221.802V221.787V221.772V221.757V221.742V221.726V221.711V221.696V221.681V221.666V221.651V221.636V221.621V221.606V221.591V221.576V221.561V221.546V221.531V221.516V221.502V221.487V221.472V221.457V221.442V221.428V221.413V221.398V221.383V221.369V221.354V221.339V221.325V221.31V221.295V221.281V221.266V221.252V221.237V221.223V221.208V221.194V221.179V221.165V221.15V221.136V221.121V221.107V221.093V221.078V221.064V221.05V221.035V221.021V221.007V220.992V220.978V220.964V220.95V220.936V220.921V220.907V220.893V220.879V220.865V220.85V220.836V220.822V220.808V220.794V220.78V220.766V220.752V220.738V220.724V220.71V220.696V220.682V220.668V220.654V220.64V220.626V220.612V220.598V220.584V220.57V220.556V220.542V220.529V220.515V220.501V220.487V220.473V220.459V220.445V220.432V220.418V220.404V220.39V220.377V220.363V220.349V220.335V220.321V220.308V220.294V220.28V220.267V220.253V220.239V220.225V220.212V220.198V220.184V220.171V220.157V220.143V220.13V220.116V220.103V220.089V220.075V220.062V220.048V220.034V220.021V220.007V219.994V219.98V219.967V219.953V219.939V219.926V219.912V219.899V219.885V219.872V219.858V219.844V219.831V219.817V219.804V219.79V219.777V219.763V219.75V219.736V219.723V219.709V219.696V219.682V219.669V219.655V219.642V219.628V219.615V219.601V219.588V219.574V219.561V219.547V219.534V219.52V219.507V219.493V219.48V219.466V219.453V219.439V219.426V219.412V219.399V219.385V219.372V219.358V219.345V219.331V219.317V219.304V219.29V219.277V219.263V219.25V219.236V219.223V219.209V219.196V219.182V219.169V219.155V219.142V219.128V219.114V219.101V219.087V219.074V219.06V219.047V219.033V219.019V219.006V218.992V218.979V218.965V218.951V218.938V218.924V218.911V218.897V218.883V218.87V218.856V218.842V218.829V218.815V218.801V218.788V218.774V218.76V218.747V218.733V218.719V218.705V218.692V218.678V218.664V218.65V218.637V218.623V218.609V218.595V218.582V218.568V218.554V218.54V218.526V218.512V218.499V218.485V218.471V218.457V218.443V218.429V218.415V218.401V218.387V218.373V218.359V218.345V218.331V218.317V218.303V218.289V218.275V218.261V218.247V218.233V218.219V218.205V218.191V218.177V218.163V218.149V218.134V218.12V218.106V218.092V218.078V218.063V218.049V218.035V218.021V218.006V217.992V217.978V217.964V217.949V217.935V217.921V217.906V217.892V217.877V217.863V217.848V217.834V217.82V217.805V217.791V217.776V217.762V217.747V217.732V217.718V217.703V217.689V217.674V217.659V217.645V217.63V217.615V217.6V217.586V217.571V217.556V217.541V217.527V217.512V217.497V217.482V217.467V217.452V217.437V217.422V217.407V217.392V217.377V217.362V217.347V217.332V217.317V217.302V217.287V217.272V217.257V217.241V217.226V217.211V217.196V217.18V217.165V217.15V217.134V217.119V217.104V217.088V217.073V217.057V217.042V217.026V217.011V216.995V216.98V216.964V216.949V216.933V216.917V216.902V216.886V216.87V216.854V216.839V216.823V216.807V216.791V216.775V216.759V216.743V216.727V216.711V216.695V216.679V216.663V216.647V216.631V216.615V216.599V216.583V216.566V216.55V216.534V216.518V216.501V216.485V216.468V216.452V216.436V216.419V216.403V216.386V216.37V216.353V216.336V216.32V216.303V216.286V216.27V216.253V216.236V216.219V216.203V216.186V216.169V216.152V216.135V216.118ZM146.739 198.009L146.746 198.014L146.753 198.02C147.502 198.562 147.894 199.518 147.894 201.234C147.894 202.902 147.394 203.884 146.625 204.444C145.766 205.021 144.371 205.241 142.109 205.039C141.766 205.004 141.507 204.987 141.255 204.969L141.253 204.969C141.13 204.961 141.008 204.953 140.878 204.943V204.923V204.902V204.882V204.862V204.842V204.821V204.801V204.781V204.761V204.741V204.721V204.701V204.681V204.662V204.642V204.622V204.602V204.582V204.563V204.543V204.523V204.504V204.484V204.465V204.445V204.426V204.406V204.387V204.368V204.348V204.329V204.31V204.29V204.271V204.252V204.233V204.214V204.195V204.176V204.157V204.138V204.119V204.1V204.081V204.062V204.043V204.024V204.006V203.987V203.968V203.949V203.931V203.912V203.893V203.875V203.856V203.838V203.819V203.801V203.782V203.764V203.746V203.727V203.709V203.691V203.672V203.654V203.636V203.618V203.599V203.581V203.563V203.545V203.527V203.509V203.491V203.473V203.455V203.437V203.419V203.401V203.383V203.365V203.347V203.33V203.312V203.294V203.276V203.259V203.241V203.223V203.206V203.188V203.17V203.153V203.135V203.118V203.1V203.083V203.065V203.048V203.03V203.013V202.995V202.978V202.961V202.943V202.926V202.909V202.891V202.874V202.857V202.84V202.822V202.805V202.788V202.771V202.754V202.737V202.719V202.702V202.685V202.668V202.651V202.634V202.617V202.6V202.583V202.566V202.549V202.532V202.515V202.499V202.482V202.465V202.448V202.431V202.414V202.398V202.381V202.364V202.347V202.33V202.314V202.297V202.28V202.264V202.247V202.23V202.214V202.197V202.18V202.164V202.147V202.13V202.114V202.097V202.081V202.064V202.048V202.031V202.014V201.998V201.981V201.965V201.948V201.932V201.916V201.899V201.883V201.866V201.85V201.833V201.817V201.801V201.784V201.768V201.751V201.735V201.719V201.702V201.686V201.67V201.653V201.637V201.621V201.604V201.588V201.572V201.555V201.539V201.523V201.506V201.49V201.474V201.458V201.441V201.425V201.409V201.393V201.376V201.36V201.344V201.328V201.311V201.295V201.279V201.263V201.247V201.23V201.214V201.198V201.182V201.165V201.149V201.133V201.117V201.101V201.084V201.068V201.052V201.036V201.02V201.003V200.987V200.971V200.955V200.939V200.922V200.906V200.89V200.874V200.858V200.841V200.825V200.809V200.793V200.777V200.76V200.744V200.728V200.712V200.695V200.679V200.663V200.647V200.631V200.614V200.598V200.582V200.566V200.549V200.533V200.517V200.5V200.484V200.468V200.452V200.435V200.419V200.403V200.386V200.37V200.354V200.337V200.321V200.305V200.288V200.272V200.256V200.239V200.223V200.207V200.19V200.174V200.157V200.141V200.124V200.108V200.092V200.075V200.059V200.042V200.026V200.009V199.993V199.976V199.96V199.943V199.927V199.91V199.893V199.877V199.86V199.844V199.827V199.81V199.794V199.777V199.761V199.744V199.727V199.71V199.694V199.677V199.66V199.644V199.627V199.61V199.593V199.576V199.56V199.543V199.526V199.509V199.492V199.475V199.458V199.441V199.424V199.407V199.39V199.374V199.357V199.339V199.322V199.305V199.288V199.271V199.254V199.237V199.22V199.203V199.186V199.168V199.151V199.134V199.117V199.099V199.082V199.065V199.047V199.03V199.013V198.995V198.978V198.96V198.943V198.926V198.908V198.891V198.873V198.856V198.838V198.82V198.803V198.785V198.767V198.75V198.732V198.714V198.697V198.679V198.661V198.643V198.625V198.608V198.59V198.572V198.554V198.536V198.518V198.5V198.482V198.464V198.446V198.428V198.409V198.391V198.373V198.355V198.337V198.318V198.3V198.282V198.264V198.245V198.227V198.208V198.19V198.171V198.153V198.134V198.116V198.097V198.079V198.06V198.041V198.023V198.004V197.985V197.966V197.948V197.929V197.91V197.891V197.872V197.853V197.834V197.815V197.796V197.777V197.758V197.739V197.72V197.7V197.681V197.662V197.643V197.623V197.604V197.584V197.565V197.546V197.526V197.507V197.487V197.467V197.448V197.428V197.408V197.389V197.369V197.349V197.329V197.309V197.29V197.27V197.25V197.23V197.21V197.189V197.169V197.149V197.129V197.109V197.089V197.068V197.048V197.028V197.007V196.987V196.966V196.946V196.925V196.905V196.884V196.863V196.842V196.822V196.801V196.78V196.759V196.74C141.239 196.782 141.569 196.816 142.04 196.817C143.228 196.918 144.219 197.068 145.011 197.271C145.814 197.477 146.379 197.728 146.739 198.009Z" stroke="#38363F"/>
<path d="M186.566 215.254L187.618 215.157L187.519 215.056C193.392 214.252 197.034 212.687 200.489 210.175C204.165 207.504 207.272 203.083 208.101 197.002C208.545 193.985 208.386 191.451 207.47 189.458C206.544 187.442 204.873 186.043 202.438 185.256L202.438 185.256L202.431 185.254C200.111 184.538 198.253 183.979 196.141 183.708C194.025 183.436 191.673 183.457 188.345 183.87L188.345 183.87C181.816 184.688 178.326 185.097 170.865 185.506L170.405 185.531L170.392 185.992C170.056 198.618 169.45 211.176 168.507 223.802L168.465 224.363L169.028 224.339C175.239 224.065 178.214 223.791 183.813 223.175L184.203 223.132L184.254 222.743C184.57 220.346 184.722 218.899 184.932 216.897C184.98 216.439 185.031 215.952 185.088 215.418C185.285 215.397 185.461 215.376 185.635 215.355L185.637 215.355C185.923 215.321 186.203 215.287 186.566 215.254ZM186.732 204.084L186.732 204.084L186.718 204.086C186.599 204.103 186.496 204.119 186.402 204.134C186.273 204.155 186.161 204.173 186.045 204.187C186.22 201.783 186.305 200.115 186.412 198.014C186.446 197.335 186.483 196.61 186.526 195.8C186.528 195.799 186.529 195.799 186.531 195.799C186.833 195.755 187.04 195.724 187.396 195.724H187.423L187.45 195.721C188.375 195.621 189.107 195.608 189.676 195.678C190.246 195.748 190.616 195.898 190.854 196.091C191.077 196.272 191.27 196.584 191.389 197.096C191.508 197.609 191.544 198.288 191.478 199.148L191.478 199.157L191.477 199.166C191.413 200.873 190.962 202.029 190.274 202.727C189.582 203.428 188.437 203.884 186.732 204.084Z" stroke="#38363F"/>
<path d="M202.487 220.787H202.779L202.807 220.738C211.345 219.535 214.786 218.848 220.923 217.428L221.154 217.375L221.259 217.162C221.896 215.87 222.254 215.037 222.705 213.985C222.852 213.642 223.009 213.276 223.189 212.863C226.834 211.999 228.661 211.523 231.61 210.691C231.695 211.872 231.695 212.654 231.695 214.005V214.664L232.33 214.486C234.894 213.768 236.717 213.22 238.477 212.691L238.543 212.671C240.28 212.149 241.963 211.642 244.253 211.003L244.604 210.905L244.618 210.54C245.091 197.868 244.145 185.885 242.255 173.364L242.169 172.793L241.616 172.96C234.62 175.074 227.69 176.916 220.621 178.69L220.356 178.757L220.269 179.016C215.429 193.465 209.513 206.821 202.052 220.042L202.381 220.227L202.42 220.787H202.487ZM231.741 187.737C232.09 192.524 232.099 195.153 232.099 199.897C232.063 199.907 232.026 199.917 231.991 199.927C230.318 200.39 229.19 200.702 227.424 201.146C229.027 196.172 229.827 193.306 231.128 187.92C231.305 187.872 231.456 187.825 231.6 187.78L231.603 187.779C231.649 187.765 231.695 187.751 231.741 187.737Z" stroke="#38363F"/>
<path d="M246.402 210.39C252.166 208.863 255.044 208.18 262.345 207.2V207.27L262.913 207.192C270.43 206.163 276.038 204.439 280.774 201.238L280.777 201.236C285.444 198.036 289.293 193.367 291.147 186.824C293.005 180.268 291.647 175.136 287.969 171.837C284.325 168.569 277.901 166.993 270.956 167.545L270.956 167.545C264.136 168.093 258.791 168.778 252.229 170.219L251.862 170.299L251.837 170.674C250.963 184.033 249.081 196.773 245.789 209.784L245.58 210.608L246.402 210.39ZM268.942 179.947L268.951 179.947L268.959 179.946C270.237 179.813 271.267 179.867 272.04 180.069C272.813 180.27 273.287 180.607 273.534 181.008C273.797 181.434 273.965 182.174 273.957 183.286C273.949 184.371 273.775 185.748 273.417 187.409L273.377 187.491L273.35 187.546L273.337 187.606C272.601 190.995 271.489 193.089 270.231 193.999C268.901 194.963 267.1 195.623 264.94 195.889L264.94 195.889L264.934 195.889C264.662 195.926 264.429 195.958 264.213 195.987C263.839 196.039 263.517 196.083 263.129 196.134C264.841 190.076 265.64 186.659 266.776 180.175C267.006 180.148 267.199 180.125 267.374 180.103C267.913 180.037 268.271 179.993 268.942 179.947Z" stroke="#38363F"/>
<path d="M49.9038 243.12L50.4092 243.126V243.055C53.223 243.059 55.4816 242.813 57.219 242.223C59.078 241.592 60.3653 240.556 61.0749 239.004C61.7853 237.45 61.7209 235.453 61.1482 233.087C60.5728 230.71 59.4626 227.876 57.9778 224.592C55.5964 219.213 50.8962 212.564 45.802 209.284C40.6384 205.934 32.5718 204.484 26.5432 205.314C19.3972 205.998 16.2217 206.477 11.3014 207.229L10.6339 207.331L10.9262 207.939C17.2116 221.026 24.7814 232.331 34.2391 243.289L34.4004 243.476L34.647 243.461C40.4275 243.12 43.582 243.052 49.9038 243.12ZM31.3167 217.511H31.3362L31.3556 217.509C33.8968 217.311 35.7836 217.844 37.0739 218.841C38.3691 219.841 39.8997 221.997 41.7969 225.226L41.7298 225.362L41.8653 225.595C42.8379 227.261 43.5305 228.601 43.9376 229.625C44.1413 230.137 44.2672 230.554 44.3243 230.883C44.3829 231.22 44.3604 231.415 44.3221 231.516C44.2165 231.795 43.9565 232.07 43.4508 232.283C42.9426 232.496 42.2227 232.628 41.2866 232.628H41.2815H41.2764H41.2713H41.2662H41.2611H41.256H41.2509H41.2459H41.2408H41.2358H41.2307H41.2257H41.2207H41.2157H41.2107H41.2057H41.2007H41.1957H41.1908H41.1858H41.1809H41.1759H41.171H41.1661H41.1611H41.1562H41.1513H41.1464H41.1416H41.1367H41.1318H41.127H41.1221H41.1173H41.1124H41.1076H41.1028H41.098H41.0932H41.0884H41.0836H41.0788H41.074H41.0693H41.0645H41.0597H41.055H41.0503H41.0455H41.0408H41.0361H41.0314H41.0267H41.022H41.0173H41.0126H41.008H41.0033H40.9986H40.994H40.9894H40.9847H40.9801H40.9755H40.9708H40.9662H40.9616H40.957H40.9525H40.9479H40.9433H40.9387H40.9342H40.9296H40.9251H40.9205H40.916H40.9114H40.9069H40.9024H40.8979H40.8934H40.8889H40.8844H40.8799H40.8754H40.8709H40.8665H40.862H40.8575H40.8531H40.8486H40.8442H40.8397H40.8353H40.8309H40.8265H40.822H40.8176H40.8132H40.8088H40.8044H40.8001H40.7957H40.7913H40.7869H40.7825H40.7782H40.7738H40.7695H40.7651H40.7608H40.7564H40.7521H40.7478H40.7435H40.7391H40.7348H40.7305H40.7262H40.7219H40.7176H40.7133H40.709H40.7048H40.7005H40.6962H40.6919H40.6877H40.6834H40.6791H40.6749H40.6706H40.6664H40.6622H40.6579H40.6537H40.6495H40.6452H40.641H40.6368H40.6326H40.6284H40.6242H40.62H40.6158H40.6116H40.6074H40.6032H40.599H40.5948H40.5906H40.5865H40.5823H40.5781H40.5739H40.5698H40.5656H40.5615H40.5573H40.5532H40.549H40.5449H40.5407H40.5366H40.5325H40.5283H40.5242H40.5201H40.5159H40.5118H40.5077H40.5036H40.4995H40.4953H40.4912H40.4871H40.483H40.4789H40.4748H40.4707H40.4666H40.4625H40.4584H40.4543H40.4503H40.4462H40.4421H40.438H40.4339H40.4298H40.4258H40.4217H40.4176H40.4135H40.4095H40.4054H40.4013H40.3973H40.3932H40.3891H40.3851H40.381H40.377H40.3729H40.3688H40.3648H40.3607H40.3567H40.3526H40.3486H40.3445H40.3405H40.3364H40.3324H40.3283H40.3243H40.3202H40.3162H40.3122H40.3081H40.3041H40.3H40.296H40.2919H40.2879H40.2839H40.2798H40.2758H40.2717H40.2677H40.2637H40.2596H40.2556H40.2516H40.2475H40.2435H40.2394H40.2354H40.2314H40.2273H40.2233H40.2192H40.2152H40.2112H40.2071H40.2031H40.199H40.195H40.191H40.1869H40.1829H40.1788H40.1748H40.1707H40.1667H40.1627H40.1586H40.1546H40.1505H40.1465H40.1424H40.1384H40.1343H40.1303H40.1262H40.1221H40.1181H40.114H40.11H40.1059H40.1018H40.0978H40.0937H40.0896H40.0856H40.0815H40.0774H40.0734H40.0693H40.0652H40.0611H40.0571H40.053H40.0489H40.0448H40.0407H40.0366H40.0325H40.0284H40.0243H40.0202H40.0161H40.012H40.0079H40.0038H39.9997H39.9956H39.9915H39.9874H39.9833H39.9791H39.975H39.9709H39.9668H39.9626H39.9585H39.9544H39.9502H39.9461H39.9419H39.9378H39.9336H39.9295H39.9253H39.9212H39.917H39.9128H39.9087H39.9045H39.9003H39.8961H39.8919H39.8878H39.8836H39.8794H39.8752H39.871H39.8668H39.8626H39.8583H39.8541H39.8499H39.8457H39.8415H39.8372H39.833H39.8288H39.8245H39.8203H39.816H39.8118H39.8075H39.8032H39.799H39.7947H39.7904H39.7861H39.7819H39.7776H39.7733H39.769H39.7647H39.7604H39.7561H39.7517H39.7474H39.7431H39.7388H39.7344H39.7301H39.7257H39.7214H39.717H39.7127H39.7083H39.7039H39.6996H39.6952H39.6908H39.6864H39.682H39.6776H39.6732H39.6688H39.6644H39.66H39.6555H39.6511H39.6467H39.6422H39.6378H39.6333H39.6288H39.6244H39.6199H39.6154H39.6109H39.6064H39.6019H39.5974H39.5929H39.5884H39.5839H39.5794H39.5748H39.5703H39.5657H39.5612H39.5566H39.5521H39.5475H39.5429H39.5383H39.5337H39.5291H39.5245H39.5199H39.5153H39.5107H39.506H39.5014H39.4968H39.4921H39.4874H39.4828H39.4781H39.4734H39.4687H39.464H39.4593H39.4546H39.4499H39.4452H39.4405H39.4357H39.431H39.4262H39.4215H39.4167H39.4119H39.4071H39.4023H39.3975H39.3927H39.3879H39.3831H39.3783H39.3734H39.3686H39.3637H39.3589H39.354H39.3491H39.3442H39.3393H39.3344H39.3295H39.3246H39.3197H39.3147H39.3098H39.3048H39.2999H39.2949H39.2899H39.2849H39.2799H39.2749H39.2699H39.2649H39.2599H39.2548H39.2524C35.1262 226.893 33.0537 223.717 29.6798 217.61C30.202 217.543 30.6258 217.511 31.3167 217.511Z" stroke="#38363F"/>
<path d="M68.3005 244.086L68.4021 244.371L68.7015 244.413C74.0048 245.161 76.2107 245.636 80.3045 246.657L81.1188 246.86L80.9096 246.047C80.5771 244.755 80.3817 243.972 80.0971 242.82C82.3573 243.371 83.5998 243.765 85.7071 244.457C86.3983 246.168 86.8053 247.062 87.5823 248.768L87.5825 248.769L87.6687 248.958L87.8639 249.03C91.3541 250.323 92.9587 251.001 96.046 252.43L97.0741 252.906L96.7327 251.826C92.2902 237.768 88.3854 223.64 84.6138 209.37L84.544 209.106L84.2839 209.022C77.0643 206.694 69.7226 205.846 62.3117 204.991C62.059 204.962 61.8063 204.933 61.5535 204.904L60.9735 204.837L60.9965 205.42C61.5372 219.125 63.7013 231.195 68.3005 244.086ZM77.8289 231.963C76.9735 227.082 76.6944 224.323 76.325 219.227C76.5042 219.259 76.6765 219.295 76.8729 219.342C78.7281 224.857 79.7343 227.784 81.5762 232.861C80.4941 232.567 79.6403 232.373 78.4738 232.109C78.2694 232.063 78.0554 232.014 77.8289 231.963Z" stroke="#38363F"/>
<path d="M105.757 249.635L105.852 249.676H105.956H105.99C110.049 251.372 113.506 251.559 115.98 250.084L115.98 250.084L115.986 250.081C117.226 249.319 118.16 248.01 118.783 246.179C119.404 244.35 119.727 241.968 119.727 239.001H119.727L119.727 238.995C119.659 233.117 118.158 228.345 115.431 225.154C112.737 222.003 108.757 219.439 104.21 217.375C102.484 216.591 101.128 215.956 99.8608 215.361C97.8305 214.409 96.0262 213.563 93.2874 212.385L92.5331 212.061L92.5911 212.88C93.5347 226.204 94.8162 239.542 97.2462 252.75L97.2931 253.004L97.528 253.113C98.4846 253.556 99.2886 253.934 100.041 254.288C101.717 255.077 103.137 255.746 105.42 256.737L106.215 257.083L106.116 256.222C105.907 254.398 105.776 253.131 105.626 251.678C105.557 251.011 105.485 250.305 105.398 249.488C105.508 249.531 105.623 249.577 105.757 249.635ZM104.276 237.946C104.041 234.62 103.909 232.733 103.684 229.441C103.725 229.457 103.767 229.474 103.811 229.492C105.007 230.003 105.797 230.692 106.275 231.414C106.749 232.2 107.075 233.4 107.141 235.195L107.141 235.204L107.142 235.214C107.208 236.079 107.189 236.771 107.105 237.3C107.021 237.824 106.88 238.143 106.734 238.32C106.495 238.549 105.976 238.66 104.869 238.198L104.869 238.198L104.864 238.196C104.702 238.13 104.589 238.081 104.472 238.03L104.471 238.03C104.409 238.003 104.346 237.976 104.276 237.946Z" stroke="#38363F"/>
<path d="M139.597 257.938L140.139 257.984V257.925C146.849 258.581 151.779 257.755 155.311 255.758C158.985 253.68 161.468 249.698 162.562 243.737C163.721 237.793 162.735 233.376 159.473 230.95C157.879 229.766 155.699 228.909 152.941 228.253C150.179 227.596 146.801 227.133 142.784 226.756L142.784 226.756L142.774 226.755C136.266 226.279 129.555 225.259 123.182 223.763L122.571 223.619L122.567 224.247C122.5 236.813 122.433 249.376 122.231 261.939L122.224 262.34L122.614 262.433C127.487 263.6 130.807 264.149 136.611 264.901L137.099 264.965L137.17 264.477C137.551 261.833 137.753 260.403 138.059 257.778C138.24 257.796 138.405 257.815 138.572 257.834L138.574 257.834C138.877 257.868 139.186 257.903 139.597 257.938ZM144.283 246.367L144.273 246.374L144.263 246.381C143.474 246.952 142.218 247.173 140.231 246.972C140.08 246.955 139.945 246.936 139.816 246.919C139.626 246.894 139.449 246.87 139.252 246.854C139.532 244.299 139.678 242.61 139.879 240.277C139.924 239.757 139.972 239.205 140.024 238.604C140.358 238.646 140.672 238.68 141.097 238.681C142.147 238.782 143.015 238.931 143.701 239.131C144.398 239.334 144.87 239.579 145.161 239.846L145.169 239.854L145.177 239.86C145.773 240.364 146.012 241.348 145.811 243.11C145.617 244.819 145.046 245.87 144.283 246.367Z" stroke="#38363F"/>
<path d="M177.698 258.213H177.719L177.74 258.211C183.531 257.728 187.873 256.204 191.202 253.674C194.537 251.208 197.62 246.944 199.531 240.718C201.44 234.497 200.542 230.095 198.325 227.922L198.325 227.922L198.319 227.916C197.177 226.833 195.57 226.155 193.478 225.838C191.387 225.522 188.779 225.56 185.591 225.938C179.333 226.621 175.975 226.961 168.984 227.302L168.58 227.321L168.515 227.721C166.429 240.611 163.739 253.089 160.108 265.633L159.923 266.272H160.588C165.857 266.272 168.429 266.134 173.354 265.792L173.668 265.771L173.784 265.479C174.895 262.697 175.439 261.191 176.388 258.312C176.453 258.305 176.514 258.298 176.573 258.291C176.958 258.246 177.236 258.213 177.698 258.213ZM180.284 246.971L180.234 246.975L180.186 246.989C180.062 247.025 179.955 247.05 179.854 247.067C180.773 243.833 181.241 241.927 182.02 238.418C182.021 238.418 182.022 238.418 182.024 238.418C182.31 238.371 182.505 238.34 182.818 238.34H182.838L182.857 238.338C183.71 238.272 184.387 238.291 184.893 238.383C185.408 238.477 185.68 238.633 185.808 238.781C185.927 238.919 186.04 239.215 186.04 239.778C186.04 240.326 185.932 241.049 185.702 241.95C185.246 243.731 184.543 244.934 183.756 245.67C182.989 246.388 181.831 246.84 180.284 246.971Z" stroke="#38363F"/>
<path d="M189.207 263.378L188.601 264.29L189.687 264.15C193.932 263.604 196.022 263.33 199.865 262.784L200.057 262.756L200.18 262.608C200.297 262.467 200.409 262.332 200.517 262.201C201.683 260.794 202.408 259.92 203.634 258.383C206.189 258.002 209.512 257.452 213.198 256.786C212.934 257.552 212.706 258.158 212.432 258.885C212.299 259.239 212.155 259.622 211.991 260.066L211.685 260.892L212.551 260.731C218.828 259.568 221.4 258.951 226.192 257.719L226.427 257.659L226.524 257.437C232.278 244.398 235.048 230.686 237.004 216.67L237.112 215.891L236.361 216.123C229.309 218.302 222.186 219.937 214.98 221.507L214.759 221.556L214.649 221.754C206.775 236.013 198.228 249.796 189.207 263.378ZM222.262 232.086C220.748 237.469 219.868 240.364 217.949 245.465C216.312 245.802 215.169 246.006 213.731 246.263C213.358 246.33 212.965 246.4 212.539 246.477C216.397 241.258 218.398 238.17 221.794 232.182C221.964 232.147 222.115 232.117 222.262 232.086Z" stroke="#38363F"/>
<path d="M241.365 253.412L241.362 253.393C246.052 252.005 250.863 249.593 255.994 245.966C262.095 241.705 267.661 236.477 272.01 230.415C274.525 226.935 276.092 223.806 276.811 221.1C277.531 218.393 277.41 216.074 276.497 214.259C274.656 210.601 269.687 208.998 262.106 210.027L262.105 210.027C254.67 211.055 251.821 211.742 246.147 213.249L245.87 213.323L245.793 213.599C241.56 228.926 235.918 242.68 227.858 256.366L227.243 257.411L228.416 257.104C233.052 255.887 235.488 255.161 238.81 254.171C239.598 253.936 240.436 253.686 241.365 253.412ZM257.765 232.127L257.335 232.876H257.394C255.426 236.165 253.615 238.265 252.293 239.363C250.802 240.545 249.253 241.263 247.639 241.656L247.632 241.658L247.624 241.66C247.305 241.748 247.06 241.808 246.818 241.865C249.98 236.329 252.781 230.351 255.059 224.427C255.404 224.371 255.689 224.316 255.967 224.263L255.969 224.262C256.323 224.194 256.666 224.128 257.125 224.061L257.125 224.061L257.135 224.06C258.354 223.859 259.259 223.873 259.852 224.046C260.142 224.131 260.333 224.248 260.454 224.374C260.569 224.494 260.643 224.645 260.666 224.85C260.719 225.338 260.557 226.197 260.073 227.459C259.597 228.699 258.835 230.263 257.765 232.127Z" stroke="#38363F"/>
<path d="M59.3726 267.602L59.3725 267.603L59.3831 267.61C63.1663 270.35 65.1328 271.656 69.1875 274.054C71.1115 275.217 72.6635 275.945 73.8599 276.141C74.4664 276.241 75.0265 276.211 75.5072 275.99C75.9981 275.765 76.3456 275.368 76.5704 274.852C77.0009 273.896 77.0485 272.462 76.7935 270.653C76.5351 268.819 75.9528 266.517 75.0382 263.769L75.0364 263.764C73.1391 258.268 70.7399 253.715 66.7131 250.688C62.705 247.676 57.6109 246.082 51.3961 246.013C45.3899 245.944 42.4135 246.013 36.9434 246.355L35.874 246.422L36.6122 247.199C43.7716 254.73 51.134 261.304 59.3726 267.602ZM63.4139 261.913L63.4478 261.904C64.1692 263.17 64.6695 264.156 64.9649 264.877C65.1151 265.243 65.2057 265.525 65.2485 265.731C65.2748 265.857 65.2775 265.931 65.2768 265.966C65.2392 265.996 65.1507 266.035 64.9413 266.031C64.6266 266.024 64.1538 265.914 63.5019 265.649C63.1563 265.509 62.9133 265.421 62.6767 265.335L62.6758 265.335C62.4711 265.261 62.2711 265.189 62.0058 265.083C58.8746 261.158 57.2657 258.944 54.5921 254.907C54.8393 254.941 55.1018 254.971 55.445 255C57.4006 255.266 58.8395 255.854 59.8161 256.721C60.8234 257.614 62.0013 259.321 63.4139 261.913Z" stroke="#38363F"/>
<path d="M89.6782 281.823C89.6404 281.536 89.6029 281.25 89.5655 280.936C89.7606 281.01 89.9484 281.081 90.1306 281.15C91.6472 281.724 92.7755 282.151 94.5321 282.765C94.8331 283.488 95.0821 284.039 95.3295 284.58C95.3643 284.656 95.399 284.732 95.4338 284.808C95.6696 285.323 95.9094 285.846 96.2004 286.524L96.2864 286.725L96.4919 286.798C100.137 288.098 101.969 288.717 105.758 289.746L106.785 290.025L106.344 289.056C101.031 277.398 96.5921 265.671 92.6904 253.395L92.6206 253.176L92.4084 253.086C87.5344 251.027 84.9445 250.061 78.2399 248.619L77.6308 248.488L77.6348 249.111C77.7023 259.719 78.445 269.586 80.5414 279.939L80.7743 279.891L80.6854 280.293C84.059 281.866 85.7494 282.62 89.192 284.057L89.9643 284.379L89.8822 283.546C89.814 282.855 89.7458 282.337 89.6784 281.825L89.6782 281.823ZM88.5012 271.687C88.0828 267.73 87.8808 265.448 87.5876 261.463C88.909 265.96 89.7017 268.46 91.0757 272.596C90.4627 272.375 89.931 272.188 89.3131 271.972C89.0607 271.884 88.7938 271.79 88.5012 271.687Z" stroke="#38363F"/>
<path d="M117.601 291.878C116.708 289.646 116.238 288.378 115.487 286.314C115.515 286.321 115.544 286.329 115.574 286.337L115.646 286.485L115.874 286.54C118.027 287.06 119.866 287.258 121.366 287.15C122.861 287.043 124.064 286.629 124.885 285.876C125.741 285.091 126.093 283.896 126.04 282.4C125.987 280.904 125.528 279.036 124.677 276.794C122.97 272.295 120.639 268.807 117.872 266.353C115.124 263.915 111.569 261.909 107.77 260.259C104.761 258.952 103.132 258.169 100.84 257.068C100.266 256.793 99.6504 256.497 98.9614 256.169L98.0283 255.723L98.2587 256.731C100.821 267.941 103.721 279.019 107.229 290.03L107.313 290.294L107.581 290.363C111.289 291.32 113.186 291.8 117.04 292.554L117.942 292.731L117.601 291.878ZM112.038 276.611C111.149 274.012 110.678 272.535 109.894 270.047C110.917 270.431 111.68 270.922 112.2 271.449C112.723 271.979 113.23 272.975 113.767 274.402C113.998 275.139 114.137 275.698 114.19 276.12C114.245 276.556 114.196 276.765 114.141 276.862C114.112 276.914 114.038 276.996 113.788 277.02C113.531 277.044 113.156 276.998 112.658 276.842C112.617 276.825 112.579 276.809 112.542 276.794C112.368 276.722 112.226 276.663 112.038 276.611Z" stroke="#38363F"/>
<path d="M143.882 290.241H144.382V290.197C149.206 290.391 152.6 289.574 154.802 288.109C157.167 286.536 158.199 283.722 157.853 279.795C157.506 275.853 155.961 272.945 152.878 271.273C149.886 269.65 145.147 268.688 138.685 267.938C132.233 267.188 128.549 266.576 123.183 265.285L122.294 265.07L122.594 265.935C125.965 275.64 129.539 285.143 133.518 294.647L133.635 294.926L133.937 294.952C137.919 295.294 139.952 295.431 144.008 295.5L144.711 295.512L144.492 294.844C144.092 293.628 143.838 292.761 143.556 291.795C143.416 291.317 143.269 290.814 143.093 290.231C143.331 290.241 143.563 290.241 143.881 290.241H143.882ZM144.156 281.65C143.783 281.981 142.965 282.205 141.521 282.075C141.199 282.021 140.985 282.007 140.707 282.004C140.094 279.9 139.762 278.594 139.229 276.484C139.387 276.502 139.556 276.514 139.752 276.515C141.394 276.65 142.503 276.98 143.139 277.391C143.726 277.77 144.15 278.444 144.404 279.605C144.664 280.789 144.482 281.361 144.156 281.65Z" stroke="#38363F"/>
<path d="M171.375 293.787L171.767 293.725L171.796 293.329C171.922 291.614 171.989 290.667 172.106 288.95C172.206 288.934 172.299 288.919 172.39 288.903L172.391 288.903C172.585 288.87 172.771 288.839 173.014 288.807H173.049H173.082L173.115 288.803C177.817 288.181 181.275 286.863 183.655 285.089C186.066 283.291 187.604 280.64 188.227 276.987L188.228 276.987L188.229 276.978C188.504 275.163 188.479 273.611 188.086 272.349C187.686 271.069 186.912 270.105 185.743 269.494C184.615 268.903 183.108 268.553 181.225 268.397C179.336 268.24 177.034 268.276 174.292 268.482L174.291 268.482C168.907 268.892 166.092 269.095 160.25 269.095H159.729L159.75 269.616C160.087 277.882 160.492 286.216 160.963 294.482L160.993 294.996L161.505 294.952C165.488 294.61 167.453 294.404 171.375 293.787ZM172.889 281.414C172.791 281.447 172.71 281.471 172.634 281.487C172.717 280.057 172.774 279.027 172.846 277.757C172.868 277.355 172.892 276.929 172.919 276.458C173.075 276.447 173.227 276.447 173.453 276.447H173.477L173.501 276.444C174.193 276.377 174.766 276.363 175.221 276.402C175.672 276.441 175.963 276.529 176.136 276.634C176.389 276.827 176.65 277.346 176.527 278.344C176.4 279.373 176.093 280.058 175.611 280.492C175.119 280.936 174.299 281.259 172.999 281.391L172.943 281.396L172.889 281.414Z" stroke="#38363F"/>
<path d="M184.316 290.422L183.994 291.129H184.771H184.839H184.898L184.955 291.116C188.674 290.225 190.57 289.675 194.147 288.581L194.361 288.515L194.455 288.312C194.687 287.806 194.87 287.435 195.055 287.06L195.056 287.059C195.215 286.736 195.376 286.409 195.57 285.994C197.623 285.413 199.018 284.972 201.05 284.322C200.982 284.697 200.911 285.035 200.79 285.524L200.561 286.453L201.454 286.111C205.028 284.744 206.79 284.057 210.305 282.481L210.446 282.417L210.527 282.285C213.869 276.823 216.252 269.439 216.729 263.076L216.778 262.422L216.134 262.548C209.202 263.913 202.206 265.14 195.213 266.095L194.929 266.134L194.819 266.397C191.453 274.451 187.952 282.436 184.316 290.422ZM203.251 271.86C203.173 274.245 202.984 275.628 202.587 278.006C201.102 278.407 200.159 278.659 198.755 278.983C199.999 276.488 200.863 274.884 202.475 272.02C202.773 271.96 203.008 271.912 203.251 271.86Z" stroke="#38363F"/>
<path d="M222.473 276.382L223.041 276.061L222.977 275.996C226.472 274.03 229.606 271.866 232.597 269.801C232.829 269.642 233.059 269.483 233.289 269.324C233.919 268.89 234.557 268.455 235.201 268.016C237.984 266.119 240.864 264.156 243.563 261.922C245.222 260.549 246.394 259.387 247.049 258.441C247.375 257.97 247.601 257.514 247.669 257.083C247.742 256.626 247.635 256.194 247.305 255.859C247.004 255.554 246.568 255.375 246.072 255.279C245.569 255.181 244.954 255.159 244.238 255.208C242.804 255.305 240.895 255.692 238.518 256.415L238.518 256.415L238.514 256.416C233.937 257.849 231.719 258.53 226.336 260.031L226.147 260.084L226.044 260.251C221.61 267.472 216.706 274.418 211.266 280.954L211.856 281.729C216.246 279.744 218.348 278.713 222.473 276.382ZM233.585 265.291L233.448 265.436V265.572C231.977 267.112 230.703 268.206 229.749 268.917C228.875 269.525 227.958 270.087 226.959 270.603C228.923 268.381 230.279 266.725 232.506 263.931C232.626 263.882 232.732 263.838 232.829 263.798C233.22 263.635 233.473 263.529 233.959 263.381L233.972 263.377L233.985 263.373C234.74 263.097 235.284 262.931 235.646 262.863C235.565 262.992 235.454 263.147 235.312 263.331C234.932 263.824 234.356 264.475 233.585 265.291Z" stroke="#38363F"/>
</svg>
